<svg width="311" height="139" viewBox="0 0 311 139" fill="none" xmlns="http://www.w3.org/2000/svg">
<path d="M84.8428 21.538L80.513 34.4431C82.8664 35.5497 85.3213 36.3205 87.5756 37.7702C98.6395 44.8908 97.5836 58.9267 91.891 69.2971C80.368 90.2917 51.0133 99.3864 28.9628 91.0649C1.89382 80.8539 5.95549 48.4886 26.6795 33.566C43.2354 21.6419 64.9525 18.7642 84.8428 21.5404V21.538ZM78.319 27.0977C64.7108 25.2396 48.2322 24.7999 35.8732 31.6451C15.0067 43.2019 9.34062 79.0442 35.5615 88.0953C57.8488 95.7886 85.1304 83.6398 87.9525 58.8397C88.704 52.241 87.5925 42.2547 80.9479 38.843C80.5299 38.628 79.1067 37.8185 78.9787 38.5168C73.1676 53.3838 60.3109 67.6227 43.4142 68.6665C39.9494 68.8815 36.4821 68.1929 33.0825 69.2077C32.0169 69.5267 31.0552 70.179 29.9921 70.4666C31.913 66.458 32.865 61.6449 38.0937 61.1713C42.8923 60.7364 47.5218 61.442 52.5162 60.6132C65.2472 58.5014 71.1936 48.1914 75.1779 37.0067C62.976 34.1797 48.5995 37.7074 42.757 49.6459C41.6721 51.864 41.172 54.2899 40.2635 56.5709C35.6968 50.0325 39.8986 42.3586 45.8619 38.4951C54.5844 32.8435 66.1654 32.2056 76.2338 33.3485L78.319 27.1001V27.0977Z" fill="#993C34"/>
<path d="M231.989 80.4939L227.533 85.5776C223.489 89.0014 216.701 95.9746 211.091 91.8477C207.194 88.9821 208.559 83.8428 210.202 80.088C214.52 70.2249 227.214 58.9943 237.418 55.5971C238.844 55.1235 242.231 54.7031 243.104 54.2754C243.679 53.9951 243.874 52.5188 244.725 52.2724C245.851 51.9462 248.402 52.1346 249.719 51.951C250.85 51.794 254.411 50.4578 254.815 50.5182C255.554 50.6293 255.796 51.6442 255.62 52.2796C251.116 60.502 245.203 69.7006 242.744 78.8025C241.291 84.1762 240.523 90.398 247.818 90.5913C263.366 91.0045 281.99 77.8481 297.531 80.7959C305.172 82.2457 309.24 88.6583 307.796 96.2525C305.524 108.196 282.875 124.09 271.076 122.473C268.766 122.157 265.178 119.448 264.477 117.23C263.528 114.222 267.387 116.875 268.464 117.112C278.354 119.277 299.713 108.648 304.207 99.4298C305.64 96.4941 306.075 92.7828 302.956 90.8353C297.688 87.5444 282.867 88.9483 276.607 89.7094C266.35 90.9561 245.868 96.1027 236.739 92.0579C231.977 89.9462 231.312 85.2176 231.991 80.4963L231.989 80.4939ZM242.139 56.8173C232.721 58.0882 224.018 69.0531 221.672 77.7853C221.258 79.3269 220.101 84.5145 221.604 85.4616C222.094 85.7009 222.595 85.3819 223.03 85.179C225.678 83.937 228.983 79.8101 230.747 77.4349C235.425 71.1358 238.754 63.863 242.142 56.8173H242.139Z" fill="#993C34"/>
<path d="M144.526 68.896C148.967 64.1216 153.024 58.9653 157.811 54.5171C161.092 51.4654 167.681 45.8114 172.182 45.4514C179.074 44.9005 176.065 51.5548 174.529 55.2878C171.868 61.7488 168.556 67.9779 165.917 74.463C165.328 75.9103 161.648 84.8117 162.404 85.5704C164.685 85.8023 166.533 84.2221 168.532 83.4344L170.375 85.6912C165.045 88.9048 159.106 91.0359 153.225 93.0583C153.242 89.0208 154.597 84.9083 155.878 81.0955C158.893 72.0975 163.286 63.6528 166.889 54.8964L166.966 52.9852C166.661 52.8209 166.369 52.775 166.024 52.8136C162.225 53.2534 153.65 63.2179 151.055 66.3662C145.232 73.4313 140.073 81.1584 136.497 89.6224C133.347 90.1322 130.466 91.1929 127.613 92.575L151.886 31.4373C152.239 29.8039 153.01 28.2503 153.353 26.6217C153.57 25.5924 154.022 24.1789 153.227 23.3502C151.896 22.5625 148.235 24.7274 147.912 24.4399L147.194 21.5549C152.688 19.8466 157.92 17.3942 162.887 14.5334C163.53 19.7572 161.672 25.2372 160.055 30.1833C155.738 43.3903 149.245 55.8387 144.529 68.8984L144.526 68.896Z" fill="#993C34"/>
<path d="M123.261 35.3105L119.878 45.2146C126.061 45.1203 132.269 47.3964 133.583 54.1014C135.954 66.1826 124.358 85.1789 113.197 89.8809C107.778 92.1642 102.274 91.0141 105.391 84.1279C105.676 83.9297 108.607 85.7685 109.472 85.9449C114.355 86.9283 118.363 82.8376 120.896 79.2181C125.023 73.3225 132.276 56.897 122.529 53.0721C121.541 52.6831 117.776 51.7601 117.09 52.4584L93.556 114.64C93.3941 114.879 92.0555 115.314 91.6544 115.459C90.5768 115.846 86.5562 117.211 85.6863 117.225C85.5051 117.228 85.2635 117.281 85.3239 117.1C92.5702 100.694 98.0961 83.5915 103.907 66.6344C108.032 65.9675 109.145 63.5199 110.735 60.1178C111.571 58.3274 113.413 54.3189 113.809 52.5551C113.913 52.0936 113.806 52.2603 113.475 52.2216C112.403 52.0936 110.472 52.1443 109.353 52.212C108.351 52.2724 105.9 52.3642 105.429 53.1205C104.666 54.3407 103.093 60.084 102.484 60.5697C101.916 60.3256 99.7899 59.7844 99.8527 59.1562L104.869 45.8452L116.455 45.1783L119.876 35.3129H123.259L123.261 35.3105Z" fill="#993C34"/>
<path d="M214.35 43.7673C215.479 48.3943 213.5 52.8595 212.422 57.2957C216.349 53.3476 224.39 43.9823 230.421 44.4849C231.469 44.5719 232.443 45.2122 233.444 45.4586L231.006 52.1999C224.728 50.4288 220.174 53.5699 216.163 58.0133C208.189 66.8495 204.562 79.7763 200.781 90.8354L192.368 93.051C195.881 82.1659 201.054 71.45 204.084 60.432C204.42 59.2094 205.616 55.2274 204.956 54.2924C204.074 53.4443 200.445 56.0997 200.1 55.8436L199.138 52.717L204.125 50.3297L214.35 43.7649V43.7673Z" fill="#993C34"/>
<path d="M196.712 45.217C196.663 51.8737 193.571 58.4386 190.956 64.4671C188.559 69.993 185.389 75.6228 183.307 81.2212C182.978 82.1031 181.813 84.8576 182.321 85.5825C183.937 86.2469 185.858 85.4762 187.417 84.8745L188.741 87.7378L173.035 93.0559C173.881 81.0666 180.412 70.858 184.916 60.1179C185.537 58.6391 187.168 55.1622 187.284 53.7632C187.542 50.6052 181.142 54.1957 180.533 53.6641L179.798 50.5327C185.636 49.4551 191.157 47.2031 196.712 45.217Z" fill="#993C34"/>
<path d="M214.585 100.319L217.016 108.522C217.347 108.496 217.4 108.169 217.509 107.93C218.528 105.695 219.091 102.685 219.937 100.331L221.365 100.305L221.848 110.697H220.638L220.396 102.965L217.516 110.793C217.511 111.03 216.999 110.982 216.897 110.936C216.467 110.743 214.631 103.651 213.995 102.721L213.633 110.697H212.669L213.176 100.334L214.59 100.319H214.585Z" fill="#212121"/>
<path d="M231.75 100.307L233.076 100.551L237.79 107.797V100.307H238.998V110.697L238.08 110.644L232.716 102.482V110.697H231.75V100.307Z" fill="#212121"/>
<path d="M147.786 100.307C149.774 100.739 150.417 104.589 147.906 105.019C149.156 105.652 150.144 106.335 150.091 107.911C150.052 109.08 149.015 110.697 147.786 110.697H143.799V100.307C144.961 100.476 146.718 100.075 147.786 100.307ZM145.007 104.656C149.433 105.342 149.707 100.437 145.007 101.273V104.656ZM145.007 109.73C150.296 110.576 150.112 104.968 145.007 105.623V109.73Z" fill="#212121"/>
<path d="M125.44 107.312C125.969 107.679 126.827 105.548 127.274 105.405C129.309 104.765 126.4 108.092 126.441 108.358L128.093 110.694C126.757 110.965 126.346 110.426 125.914 109.249C125.658 109.066 124.636 110.131 124.239 110.346C119.441 112.966 117.189 106.205 122.053 104.654C120.108 102.764 120.726 99.8237 123.749 100.164C124.94 100.297 126.827 101.385 125.315 102.479C124.822 101.339 122.224 100.3 122.045 102.129C121.922 103.368 125.022 105.983 125.44 107.314V107.312ZM120.912 109.421C122.125 110.636 124.133 109.605 124.935 108.367L122.621 105.417C120.941 105.683 119.612 108.121 120.912 109.421Z" fill="#212121"/>
<path d="M201.184 100.307C203.427 100.756 204.009 104.518 201.784 105.507C202.931 107.089 203.018 108.938 203.721 110.694L202.388 110.46C201.67 107.573 201.627 105.422 197.922 106.106V110.697H196.714V100.307C198.034 100.488 199.955 100.061 201.184 100.307ZM197.922 105.139C203.265 105.898 203.591 100.331 197.922 101.273V105.139Z" fill="#212121"/>
<path d="M152.981 100.307V104.898H157.813V100.307H159.021V110.697H157.813V105.864H152.981V110.697H151.772V100.307H152.981Z" fill="#212121"/>
<path d="M162.646 100.307V104.898C165.543 105.509 165.789 102.279 166.794 100.348L167.961 100.309C167.352 101.909 166.806 103.844 165.55 105.019C167.041 106.386 167.495 108.711 168.208 110.573L167.024 110.67C166.036 108.411 165.946 105.103 162.648 105.867V110.699H161.44V100.309H162.648L162.646 100.307Z" fill="#212121"/>
<path d="M191.848 100.341L195.506 110.694C193.155 111.289 194.351 107.754 192.5 107.541C191.993 107.483 189.787 107.476 189.463 107.672L188.383 110.457L187.049 110.692L190.698 100.331L191.848 100.341ZM192.607 106.345C192.752 106.207 191.698 103.16 191.517 102.721C191.42 102.491 191.493 102.167 191.162 102.24L189.951 106.345H192.607Z" fill="#212121"/>
<path d="M180.284 110.694L178.858 110.673L177.836 107.589L173.975 107.701L173.001 110.665L171.83 110.697L175.483 100.343C175.647 100.244 176.08 100.266 176.268 100.336C176.952 100.594 179.482 109.431 180.286 110.694H180.284ZM177.384 106.345C176.889 105.04 176.732 103.197 175.696 102.24L174.485 106.345H177.382H177.384Z" fill="#212121"/>
<path d="M185.721 100.307C187.569 100.636 187.977 102.411 187.779 104.059C187.443 106.85 184.836 106.35 182.7 106.348V110.697H181.492V100.307C182.773 100.464 184.508 100.092 185.721 100.307ZM182.7 101.273V105.381C183.826 105.369 186.221 105.678 186.506 104.248C187.1 101.271 185.133 101.097 182.7 101.273Z" fill="#212121"/>
<path d="M254.148 110.139C252.662 111.492 249.987 110.82 248.421 109.967L248.907 108.764C250.427 110.201 254.336 110.421 253.689 107.49C253.249 105.504 247.726 105.99 248.777 101.991C249.337 99.8575 252.188 99.7005 253.868 100.539C254.72 100.964 255.426 101.546 254.341 102.201C252.932 100.993 250.473 100.297 249.871 102.619C249.702 105.282 255.675 104.231 254.887 108.587C254.817 108.969 254.416 109.892 254.145 110.139H254.148Z" fill="#212121"/>
<path d="M138 100.307C138.834 101.162 135.606 103.627 135.101 104.294C139.846 104.598 139.382 111.062 134.774 110.919C134.136 110.9 132.191 110.482 132.191 109.609L132.568 109.003C137.582 112.231 139.505 104.719 133.648 105.379C132.986 104.695 135.92 102.146 136.306 101.513H132.199V100.305H137.998L138 100.307Z" fill="#212121"/>
<path d="M229.817 100.307V101.273H225.226V104.656H228.367L228.369 105.499L225.226 105.623V109.73H230.058V110.697H224.018V100.307H229.817Z" fill="#212121"/>
<path d="M109.972 109.73H114.804V110.697H108.764C107.838 107.29 113.369 105.968 113.376 103.086C113.383 100.203 110.385 101.179 109.008 102.482L108.795 101.315C111.308 99.1882 115.167 99.8648 114.546 103.798C114.142 106.352 110.293 107.179 109.972 109.733V109.73Z" fill="#212121"/>
<path d="M211.453 100.307V101.273H208.312V110.697H207.104V101.273H204.205V100.307H211.453Z" fill="#212121"/>
<path d="M230.778 121.331L231.87 126.405L233.436 121.444C233.67 121.186 233.878 121.335 234.042 121.572C234.357 122.026 234.818 124.764 235.098 125.59C235.205 125.907 235.168 126.327 235.613 126.402L236.56 121.468L237.307 121.331C236.937 122.338 236.07 128.026 235.492 128.333C235.101 128.541 235.098 128.045 235.023 127.849C234.453 126.342 234.366 124.46 233.562 123.022L231.989 128.335L231.392 128.089L229.821 121.444L230.778 121.331Z" fill="#212121"/>
<path d="M247.696 100.307V101.273H244.555V110.697H243.589V101.273H240.448V100.307H247.696Z" fill="#212121"/>
<path d="M190.916 121.328C191.36 121.294 191.631 121.268 192 121.572C192.648 122.106 193.97 124.909 194.711 125.854C194.866 126.052 194.702 126.296 195.265 126.161V121.328H195.99V127.973C195.99 128.101 195.468 128.47 195.27 128.333L191.64 122.778V128.335H190.916V121.328Z" fill="#212121"/>
<path d="M180.767 121.328C182.212 121.48 184.814 120.666 185.107 122.676C185.244 123.631 185.07 124.443 184.152 124.829C184.831 125.515 185.319 127.028 185.363 127.973C185.389 128.577 185.056 128.301 184.64 128.333C184.254 126.378 184.292 124.679 181.734 125.192C181.497 125.428 182.342 129.379 180.767 127.97V121.326V121.328ZM181.734 124.469C183.244 124.716 185.012 124.201 184.172 122.391C183.488 121.831 182.577 121.761 181.734 121.809V124.469Z" fill="#212121"/>
<path d="M149.356 121.328C150.801 121.48 153.404 120.666 153.696 122.676C153.834 123.631 153.66 124.443 152.742 124.829C153.421 125.515 153.909 127.028 153.952 127.973C153.979 128.577 153.645 128.301 153.23 128.333C152.843 126.378 152.882 124.679 150.323 125.192C150.086 125.428 150.932 129.379 149.356 127.97V121.326V121.328ZM150.323 124.469C151.833 124.716 153.602 124.201 152.761 122.391C152.077 121.831 151.166 121.761 150.323 121.809V124.469Z" fill="#212121"/>
<path d="M200.52 121.137C204.91 120.301 205.258 129.077 200.474 128.323C197.671 127.881 197.572 121.698 200.52 121.137ZM200.759 121.852C198.449 122.321 198.505 127.714 201.177 127.627C203.849 127.54 203.736 121.248 200.759 121.852Z" fill="#212121"/>
<path d="M113.053 121.137C117.494 120.294 117.767 129.072 113.007 128.323C110.204 127.881 110.105 121.698 113.053 121.137ZM113.292 121.852C110.513 122.418 111.426 129.157 114.657 127.34C116.387 126.366 115.976 121.309 113.292 121.852Z" fill="#212121"/>
<path d="M209.762 128.335V121.328C212.511 120.98 214.865 121.591 214.809 124.807C214.758 127.673 212.308 128.685 209.762 128.335ZM210.487 122.174V127.248C210.487 127.99 213.28 127.734 213.756 125.926C214.014 124.94 213.978 123.121 213.14 122.423C212.719 122.072 210.706 121.466 210.489 122.174H210.487Z" fill="#212121"/>
<path d="M118.912 121.328C120.118 121.449 122.111 120.884 122.882 122.067C123.554 123.097 123.16 124.394 122.053 124.832C123.099 125.639 122.993 127.084 123.505 128.212L122.66 128.091C122.143 126.117 122.15 124.752 119.635 125.194V128.338H118.91V121.331L118.912 121.328ZM119.637 124.469L122.06 124.112C123.056 121.99 121.41 121.686 119.637 121.809V124.469Z" fill="#212121"/>
<path d="M146.23 122.763C145.713 121.364 143.915 121.57 143.263 122.848C142.105 125.119 143.207 128.342 146.215 127.613V125.677H145.246V124.955H147.182L146.914 128.069C143.896 128.971 142.026 127.808 142.088 124.588C142.134 122.285 143.574 120.275 146.037 121.384C146.643 121.657 147.554 122.628 146.227 122.763H146.23Z" fill="#212121"/>
<path d="M219.18 121.328L221.599 128.333C220.318 128.763 220.335 126.235 220.002 126.144L217.482 126.269L216.788 128.19L216.044 128.333C216.3 127.357 218.023 121.736 218.446 121.434C218.68 121.268 218.922 121.323 219.18 121.328ZM218.941 122.778C218.322 122.681 218.566 122.833 218.436 123.119C218.322 123.37 217.646 125.356 217.735 125.436H219.666L218.939 122.778H218.941Z" fill="#212121"/>
<path d="M165.035 121.355C165.34 123.377 166.674 125.436 167.128 127.354C167.307 128.106 167.391 128.722 166.507 128.171L165.794 126.272L163.274 126.146L162.648 128.173L161.921 128.335L164.12 121.355H165.035ZM165.545 125.433C165.664 125.327 164.789 122.672 164.34 122.536L163.612 125.433H165.543H165.545Z" fill="#212121"/>
<path d="M90.1563 122.536C89.9848 122.722 88.1485 121.012 87.2351 122.152C86.0729 124.849 90.5744 123.805 90.3883 126.494C90.2288 128.806 87.6483 128.618 86.0488 127.849L86.4233 127.132C87.3487 127.545 88.5544 128.072 89.3107 127.132C90.497 124.733 85.9183 125.216 86.0512 122.92C86.1841 120.625 89.951 120.316 90.1539 122.539L90.1563 122.536Z" fill="#212121"/>
<path d="M245.039 127.85L245.414 127.132C246.218 127.688 248.717 128.077 248.637 126.525C248.543 124.747 245.406 125.274 245.269 123.138C245.112 120.753 247.977 120.606 249.388 121.937L249.028 122.531C248.212 121.705 245.981 121.374 245.981 122.899C245.981 124.621 249.306 123.95 249.405 126.289C249.504 128.628 246.66 128.693 245.039 127.85Z" fill="#212121"/>
<path d="M96.4412 121.328C96.8326 121.625 96.4387 121.765 96.0836 121.811C95.4457 121.893 93.7205 121.584 93.4064 122.036L93.3001 124.228H95.7187V124.95H93.3001L93.4064 127.383L96.6852 127.61V128.335H92.9376L92.5752 127.973V121.328H96.4412Z" fill="#212121"/>
<path d="M160.229 121.328C160.621 121.625 160.227 121.765 159.872 121.811C159.234 121.893 157.509 121.584 157.194 122.036L157.088 124.228H159.265V124.95H157.088V127.608H160.471V128.333H156.363V121.326H160.229V121.328Z" fill="#212121"/>
<path d="M243.106 121.328C243.497 121.625 243.103 121.765 242.748 121.811C242.11 121.893 240.385 121.584 240.071 122.036L239.965 124.228H242.142V124.95H239.965V127.608H243.347V128.333H239.24V121.326H243.106V121.328Z" fill="#212121"/>
<path d="M178.593 121.328C178.984 121.625 178.588 121.765 178.235 121.811C177.74 121.874 175.548 121.712 175.451 121.811V124.23L177.628 124.351C177.981 125.537 175.715 124.687 175.451 124.952V127.613H178.837L178.474 128.338H174.729V121.331H178.595L178.593 121.328Z" fill="#212121"/>
<path d="M102.653 121.635C102.979 121.973 103.088 122.493 102.602 122.773C99.8693 119.733 97.9508 124.718 99.6929 126.895C101.007 128.536 102.757 126.924 102.962 127.129C103.291 127.456 102.781 127.932 102.38 128.115C97.499 130.365 96.762 120.589 101.367 121.094C101.631 121.123 102.481 121.461 102.65 121.637L102.653 121.635Z" fill="#212121"/>
<path d="M172.552 121.328V121.809H170.619V128.333H169.894V122.171C169.38 121.538 168.449 121.879 167.722 121.807V121.326H172.552V121.328Z" fill="#212121"/>
<path d="M255.912 121.328V121.809C255.182 121.881 254.252 121.541 253.737 122.174V128.335H253.012V121.811H251.082V121.328H255.914H255.912Z" fill="#212121"/>
<path d="M109.489 121.328C110.402 122.019 107.631 121.734 107.553 121.809V127.729L106.831 128.335V122.174C106.316 121.541 105.386 121.881 104.659 121.809V121.328H109.489Z" fill="#212121"/>
<path d="M132.442 121.328V127.973L131.718 128.335V122.295L130.263 123.143C128.854 122.768 131.764 121.115 132.442 121.328Z" fill="#212121"/>
<path d="M228.606 120.606C228.802 120.809 227.625 122.072 227.463 122.481C226.937 123.8 226.983 125.958 227.676 127.214C227.729 127.311 229.447 129.311 228.249 128.818C225.96 127.876 225.504 121.35 228.606 120.606Z" fill="#212121"/>
<path d="M257.487 120.603C258.567 120.4 259.558 123.95 259.544 124.82C259.527 125.82 258.903 127.601 258.19 128.316C257.826 128.681 256.866 129.058 257.364 128.219C257.632 127.77 258.14 127.347 258.374 126.811C258.918 125.557 258.949 123.802 258.454 122.531C258.193 121.86 257.664 121.664 257.362 121.207C257.156 120.896 257.11 120.676 257.487 120.603Z" fill="#212121"/>
<path d="M207.104 121.328H206.379V128.335H207.104V121.328Z" fill="#212121"/>
<path d="M135.826 129.299L136.311 128.451C136.338 128.313 135.664 128.485 135.816 127.736L136.427 127.129C137.121 127.274 136.821 129.442 135.828 129.299H135.826Z" fill="#212121"/>
<g clip-path="url(#clip0_234_176)">
<path d="M200.875 13.8095C204.132 12.2846 207.475 10.9636 210.983 10.1025C211.738 13.4658 211.534 16.8224 211.659 20.2126L210.985 24.4251L210.409 24.7503C208.442 24.7167 206.461 24.7891 204.545 25.271L203.908 25.0975C203.445 24.9643 203.433 24.5515 203.908 24.4235C203.588 24.3291 203.588 24.1825 203.908 24.0865C203.433 23.8623 203.443 23.3063 203.908 23.0754C203.51 22.5413 203.065 21.6516 203.571 21.0534C203.065 20.9894 202.755 19.9666 203.234 19.7054C202.74 19.6043 202.68 19.3532 203.065 19.0314C202.528 18.937 202.344 18.2192 202.728 17.8519C202.228 17.7997 201.615 16.8611 202.054 16.5039C201.564 16.5679 201.323 15.7675 201.717 15.4929C201.111 15.3058 200.482 14.3589 200.875 13.8079V13.8095Z" fill="#A87332"/>
<path d="M190.596 1.50893C192.935 3.31695 195.522 6.4039 197.336 8.7545L197.244 9.13699L195.424 9.43524C192.082 9.47063 188.793 9.64755 185.556 9.96602C185.13 9.97782 184.847 9.89862 184.867 9.4285C185.046 9.04937 185.187 8.44614 185.373 8.08049C186.308 6.23708 187.44 4.24708 188.574 2.51994C188.723 2.29414 189.602 1.04049 189.691 1.01353C190.005 0.920857 190.355 1.32358 190.596 1.50893Z" fill="#A87332"/>
<path d="M199.696 12.1245C199.878 12.4093 200.027 12.689 200.201 12.967L200.1 13.3091C200.1 13.3091 194.479 13.5854 183.235 14.1364L183.012 13.8095C183.123 13.5332 183.243 13.2417 183.349 12.967L183.649 12.6148C188.841 12.3469 194.034 12.079 199.227 11.8111L199.696 12.1245Z" fill="#B6872D"/>
<path d="M200.201 12.967C200.361 13.2248 200.706 13.4152 200.706 13.8095C200.681 14.2965 200.476 14.3791 200.201 13.978C194.93 14.3386 189.626 14.6638 184.288 14.9503L183.182 14.8205C182.845 15.1508 182.704 15.1255 182.677 14.652C182.653 14.3032 182.914 14.0572 183.014 13.8095L200.201 12.967Z" fill="#B98B2C"/>
<path d="M199.695 12.1245L183.351 12.967C183.46 12.6823 183.578 12.3958 183.688 12.1245L183.982 11.7707C188.85 11.5567 193.83 11.2247 198.688 10.8759L199.021 11.1135C199.249 11.4522 199.475 11.7791 199.695 12.1245Z" fill="#B3822E"/>
<path d="M197.842 9.42849C198.076 9.80593 197.961 9.94242 197.527 9.95084L184.99 10.6602C184.442 10.6805 184.417 10.6805 184.53 10.1042C184.648 9.84637 184.766 9.64585 184.867 9.43017C185.469 9.86996 186.313 9.45376 186.967 9.42343C189.777 9.292 192.596 9.2465 195.405 9.09991C195.965 9.07126 196.809 8.94152 197.336 8.75616C197.513 8.98701 197.67 9.19764 197.842 9.43017V9.42849Z" fill="#AB7631"/>
<path d="M199.021 11.1135L183.688 12.1245C183.8 11.8465 183.908 11.5566 184.025 11.282C188.717 10.9416 193.489 10.6518 198.34 10.4159L198.684 10.608C198.805 10.7832 198.905 10.9399 199.021 11.1135Z" fill="#B17F2F"/>
<path d="M198.347 10.1025L198.309 10.33C193.739 10.7293 188.945 10.9905 184.321 11.1624L184.193 10.945C184.306 10.6855 184.38 10.4294 184.53 10.1025C184.663 10.5153 184.908 10.4193 185.235 10.4007C189.186 10.1901 193.141 9.99464 197.092 9.7739C197.407 9.75705 197.724 9.81097 197.842 9.42679C198.01 9.65427 198.177 9.86489 198.347 10.1008V10.1025Z" fill="#AD7A30"/>
<path d="M198.685 10.608C198.403 10.7984 198.086 10.7748 197.766 10.7833C193.717 10.8945 189.661 11.1995 185.632 11.4573C185.174 11.4859 184.402 11.5634 184.025 11.282C184.081 11.1506 184.15 11.0461 184.193 10.945L198.348 10.1025C198.469 10.2727 198.568 10.4412 198.685 10.608Z" fill="#AF7C2F"/>
<path d="M200.875 13.8095C201.096 14.3993 201.453 14.925 201.717 15.4945L201.396 15.7995C200.508 15.9562 198.051 16.2915 197.673 15.4945C197.469 14.8812 198.197 14.77 198.684 14.8205C198.617 14.1061 199.603 13.9763 200.201 13.978C200.329 13.9157 200.531 13.8921 200.706 13.8095C200.752 13.7876 200.829 13.8314 200.875 13.8095Z" fill="#DDC792"/>
<path d="M210.985 24.4252C210.977 24.4808 210.992 24.538 210.985 24.5937L211.243 24.9172C212.813 25.0688 214.188 25.5221 215.366 26.2787C215.464 26.4826 215.56 26.71 215.526 26.9409C215.39 27.8794 214.647 29.4448 214.205 30.3446C210.901 37.0695 204.634 38.7714 198.133 35.1941C197.352 36.0939 196.388 36.8286 195.242 37.3964L194.807 37.2296C194.752 37.3762 194.696 37.3762 194.639 37.2296C194.089 37.1774 193.773 36.4831 194.133 36.0501C194.029 35.8361 194.207 35.6844 194.667 35.5934L194.976 35.0391C194.664 34.6448 195.245 34.114 195.65 34.3651C196.11 34.2235 196.502 33.9977 196.829 33.6911C196.755 33.1973 197.594 32.9395 197.84 33.354C198.073 33.108 198.177 33.2142 198.009 33.5226C197.901 34.1258 198.014 34.3499 198.346 34.1966C198.115 33.6911 198.115 33.2968 198.346 33.017L198.607 32.488C201.247 31.0287 203.158 28.5922 203.517 25.5524L203.906 25.0992C206.203 24.4083 208.604 24.3695 210.983 24.4252H210.985Z" fill="#DBC5AB"/>
<path d="M215.366 26.277C216.382 26.5904 217.406 26.9897 218.397 27.3705C215.514 31.7516 211.802 36.3719 207.109 38.9129L206.897 39.4049C203.724 40.9956 199.687 41.924 196.6 39.6341C195.867 39.0898 194.686 38.1563 194.807 37.2262C195.924 36.7291 197.213 35.7215 198.116 34.8941C206.939 39.351 212.953 35.0492 215.364 26.2736L215.366 26.277Z" fill="#A87332"/>
<path d="M210.985 24.5936C212.579 24.4908 214.121 24.998 215.703 25.1008C215.781 25.1665 215.425 26.0646 215.366 26.2786C213.976 25.849 212.535 25.5052 211.101 25.2339L210.845 25.0166C210.889 24.8767 210.965 24.7402 210.983 24.5936H210.985Z" fill="#F7F8F9"/>
<path d="M172.904 13.1355L174.083 13.304C176.759 13.4523 179.752 13.9629 182.34 14.652C182.965 14.7329 182.945 15.7793 182.34 15.8316C182.818 16.1787 182.333 17.2133 181.834 17.3481C182.266 17.5857 182.18 18.3085 181.666 18.3591C182.05 18.7146 181.937 19.1645 181.329 19.7071C181.612 20.0289 181.556 20.4788 181.16 21.0551C181.578 21.2944 181.585 21.8504 181.11 21.9381C181.056 22.8783 181.01 23.827 181.16 24.7621C181.644 24.9054 181.572 25.0216 181.16 25.2676C181.644 25.4395 181.922 26.6308 181.497 26.9527L181.464 27.3318L180.094 27.9755C181.983 32.8047 185.423 38.1125 191.269 37.7721L191.776 38.0738C192.098 38.0198 192.266 38.0754 192.281 38.2423C191.756 39.1842 190.821 40.517 189.922 41.1068C184.468 44.6942 176.35 39.041 172.309 35.3828C171.743 34.8689 168.942 31.733 168.691 31.6707C168.636 31.3202 169.138 31.0944 169.382 30.931C171.103 29.7767 172.911 28.7607 174.771 27.8558C173.67 24.2179 172.67 20.5344 172.25 16.7398C172.199 16.2916 172.087 15.6664 172.061 15.3277C172.041 15.0497 172.07 14.7649 172.061 14.4852C171.91 14.0488 171.918 13.5736 172.061 13.1372C172.341 13.1355 172.624 13.1406 172.904 13.1372V13.1355Z" fill="#A87332"/>
<path d="M182.677 14.652C182.815 14.6908 182.999 14.7666 183.182 14.8205C184.02 14.7228 184.525 14.9469 184.699 15.4945C184.883 16.3151 182.561 16.4516 182.34 15.8315C182.419 15.5181 182.512 14.9166 182.34 14.652C182.436 14.6773 182.582 14.6251 182.677 14.652Z" fill="#D5BA7C"/>
<path d="M172.061 14.4835C171.778 14.2173 171.78 13.395 172.061 13.1355C172.071 13.5837 172.048 14.0353 172.061 14.4835Z" fill="#EDF1F4"/>
<path d="M174.083 13.304C173.711 13.2838 173.14 13.4405 172.904 13.1355C173.269 13.1305 173.858 13.0176 174.083 13.304Z" fill="#EDF1F4"/>
<path d="M203.571 21.0551C203.706 21.7493 203.859 22.3576 203.908 23.0771C203.285 23.008 202.658 23.0569 202.031 23.2237L201.802 22.9086C201.785 23.0384 201.756 23.2136 201.652 23.2456C201.525 23.2844 199.222 23.2827 199.01 23.2456L198.769 22.9086L198.765 23.2743C198.676 23.372 196.351 23.5371 196.133 23.4984L195.82 23.2456C195.345 23.2911 195.259 23.1647 195.483 22.7401C194.952 22.6963 194.443 21.9852 194.809 21.5606C194.876 21.3871 194.989 21.2573 195.148 21.1629C195.291 21.077 198.305 20.9388 198.464 20.9894C198.595 21.0298 198.696 21.1057 198.769 21.2236C198.991 20.8563 199.525 20.7451 200.373 20.8866C201.081 20.7569 201.558 20.8698 201.802 21.2236C201.927 20.6406 203.398 20.4097 203.571 21.0551Z" fill="#E9D88E"/>
<path d="M203.908 24.4251C203.9 24.6476 203.928 24.8784 203.908 25.0991L203.696 25.5204C202.395 25.9703 201.143 26.6291 200.166 27.6098L199.697 27.6267C199.072 28.0884 197.291 28.2248 196.833 27.6267L196.492 27.4312C196.548 26.9914 196.548 26.6072 196.496 26.2787C196.285 26.0293 196.379 25.9349 196.664 26.1101C197.025 25.1969 198.664 24.8059 199.632 24.6088C200.885 24.3527 202.72 24.1977 203.91 24.4251H203.908Z" fill="#F6EFC3"/>
<path d="M202.728 17.8536C202.863 18.231 202.947 18.6472 203.065 19.0331C202.43 19.542 200.816 19.5083 200.117 19.2016C200.1 19.333 200.061 19.5268 199.967 19.5386C199.429 19.6043 197.869 19.6026 197.324 19.5386L197.084 19.2016V19.5672C195.826 19.6532 194.568 19.7576 193.304 19.8806L192.955 19.7054C192.63 20.1115 192.153 19.825 192.45 19.3684C192.214 18.9168 192.495 18.5798 193.292 18.3574C193.141 17.8805 193.518 17.7963 193.798 18.1889C194.543 17.7238 196.332 17.3969 196.915 18.0204C196.805 17.5469 199.505 17.6092 199.707 17.6834L199.948 18.0204C199.865 17.156 202.235 17.3902 202.728 17.8519V17.8536Z" fill="#E3D090"/>
<path d="M203.234 19.7071C203.369 20.2092 203.465 20.5075 203.571 21.0551C203.02 20.8782 202.174 21.2236 201.802 21.2236H198.768C198.708 21.2236 198.489 21.3871 198.27 21.3989C197.114 21.4578 195.961 21.3331 194.809 21.5606C194.403 21.8791 193.385 20.8226 193.629 20.3811C193.496 19.793 196.455 19.7593 196.61 19.8082C196.741 19.8486 196.843 19.9245 196.915 20.0441C196.805 19.5706 199.505 19.633 199.707 19.7071L199.948 20.0441C199.643 19.4105 202.502 19.3954 202.907 19.4527L203.234 19.7071Z" fill="#E6D48F"/>
<path d="M195.82 23.2456C196.608 22.9474 197.453 23.1327 198.27 23.0839C198.489 23.0704 198.71 22.9086 198.769 22.9086H201.802C202.297 22.9086 203.539 22.3138 203.908 23.0771C203.93 23.4091 203.908 23.7545 203.908 24.0881C203.338 24.3712 202.251 24.3746 201.633 24.2566C201.468 24.5077 199.109 24.7133 198.841 24.5937C198.715 24.538 198.651 24.3898 198.6 24.2566C198.745 25.0503 196.667 24.9273 196.325 24.4252C195.769 24.2617 195.555 23.7613 195.82 23.2456Z" fill="#EBDC8D"/>
<path d="M202.729 17.8536C201.974 17.8873 201.204 17.8064 200.447 17.8468C200.228 17.8586 200.007 18.0221 199.948 18.0221H196.915C196.068 18.0221 194.75 18.1468 193.798 18.1906C193.554 17.7542 193.835 17.4744 194.641 17.3481C194.442 16.8139 195.306 16.6185 195.652 16.8426C195.95 16.5949 196.449 16.4601 196.84 16.4095C198.452 16.5022 200.053 16.4533 201.645 16.2612L202.056 16.5056C202.223 16.9032 202.567 17.3936 202.73 17.8536H202.729Z" fill="#E1CD91"/>
<path d="M203.066 19.0331C203.133 19.2521 203.175 19.4847 203.234 19.7071C202.338 20.0155 201.376 19.8217 200.447 19.8689C200.226 19.8807 200.009 20.0441 199.948 20.0441H196.915C196.856 20.0441 196.636 20.2059 196.417 20.2193C195.481 20.2733 194.551 20.1098 193.63 20.3811C193.245 20.7232 192.713 20.1182 192.956 19.7071C194.069 19.1578 195.387 19.4375 196.585 19.3768C196.806 19.365 197.023 19.2016 197.084 19.2016H200.117C200.178 19.2016 200.397 19.0381 200.616 19.0264C201.428 18.9859 202.254 19.0668 203.066 19.0331Z" fill="#E4D290"/>
<path d="M201.717 15.4945C201.898 15.8838 201.938 16.2275 202.054 16.5055C200.118 17.0616 197.515 16.546 195.651 16.8425C195.366 16.7734 195.422 16.6605 195.82 16.5055C196.024 16.0489 196.472 15.7692 197.168 15.663C197.11 15.2114 197.38 15.1474 197.673 15.4945C197.939 15.4878 198.354 15.6933 198.768 15.6782C199.721 15.6445 200.716 15.3496 201.717 15.4945Z" fill="#DFCA92"/>
<path d="M203.908 24.0881C203.908 24.201 203.911 24.3139 203.908 24.4251C201.493 24.5346 198.775 24.8481 196.662 26.1101C196.238 25.9888 196.078 25.1412 196.494 24.9306C196.022 24.8666 196.009 24.7891 196.325 24.4251C196.912 24.3931 197.513 24.4723 198.101 24.4319C198.319 24.4167 198.543 24.2566 198.6 24.2566H201.633C201.692 24.2566 201.914 24.0965 202.132 24.0814C202.72 24.0409 203.32 24.1201 203.908 24.0881Z" fill="#EDDF8D"/>
<path d="M200.201 13.978C199.751 14.1971 199.146 14.561 198.684 14.8205C194.202 15.1255 189.708 15.4052 185.204 15.663C184.906 16.0439 184.712 15.9781 184.699 15.4945C184.267 15.3479 183.603 14.9452 183.182 14.8205C185.445 14.278 187.856 14.4465 190.182 14.3218C192.64 14.1903 195.122 13.9073 197.582 13.8028C198.376 13.7691 199.459 13.7 200.201 13.978Z" fill="#BB8E2B"/>
<path d="M198.685 14.8205C198.366 14.9991 197.975 15.2755 197.674 15.4945C197.596 15.4962 197.375 15.6563 197.168 15.663C196.511 15.9967 194.517 16.3539 193.875 16.1652C193.724 16.1214 193.628 15.9663 193.545 15.8315C193.459 16.3168 191.304 16.2747 190.917 16.1685L190.681 15.8315C190.713 15.9545 190.75 16.1028 190.679 16.1972C190.472 16.4735 187.424 16.3657 186.889 16.1685C186.559 16.5662 185.181 16.2107 185.204 15.663C185.506 15.2452 186.78 15.1929 187.312 15.1592C190.505 14.9604 193.714 14.834 196.909 14.6453C197.419 14.615 198.248 14.5391 198.685 14.8205Z" fill="#BE922A"/>
<path d="M193.63 29.8155C194.154 29.1499 196.246 29.9368 195.989 30.8265C196.073 30.8063 196.154 30.7928 196.23 30.8097C196.663 30.9108 196.695 33.9101 195.82 34.028C196.134 34.2066 195.97 34.2926 195.652 34.365C195.625 34.4055 195.055 34.9716 194.978 35.039C194.927 35.5951 194.422 35.9035 193.967 35.7131C193.965 36.4208 193.412 36.2371 192.956 36.0501C192.721 36.7797 191.109 36.3079 190.57 35.9793C190.024 35.6473 189.097 34.6987 189.754 34.1965C189.075 33.8865 189.353 32.1021 190.091 32.006C189.96 31.1551 190.615 30.5872 191.306 30.1458C191.874 29.7835 193.232 29.1348 193.63 29.8155Z" fill="#FDFDFD"/>
<path d="M203.908 25.0991C203.576 28.8112 201.544 31.3151 198.347 33.0187C198.288 32.9041 198.233 32.9024 198.179 33.0187C198.329 33.2934 198.143 33.5798 197.842 33.3557C197.554 33.4888 197.141 33.5815 196.831 33.6927C196.834 34.1847 196.088 34.3229 195.82 34.0297C196.152 33.3372 196.34 31.4887 195.988 30.8282C195.822 30.3429 195.914 29.77 196.265 29.1061C196.265 28.6208 196.396 28.2956 196.662 28.1321C196.71 27.9856 196.767 27.9872 196.831 28.1321L197.217 28.1692L198.047 30.0396C198.325 29.2662 198.635 28.4961 199.119 27.8238L199.697 27.6266C200.705 26.4387 202.43 25.544 203.91 25.0991H203.908Z" fill="#FBF9E5"/>
<path d="M194.135 36.05C194.291 36.4612 194.482 36.8235 194.64 37.2296C194.123 37.4486 193.157 37.7839 192.618 37.9036C192.052 37.8277 192.901 36.0939 193.046 36.2067C193.2 36.3264 192.994 36.6331 192.955 36.05C193.082 36.0349 193.799 35.7889 193.966 35.713C194.384 35.6423 194.381 35.7097 194.135 36.05Z" fill="#F6F7F8"/>
<path d="M196.831 33.691V34.365H195.651C195.688 34.3094 195.776 34.1173 195.82 34.028C196.18 33.9876 196.497 33.8107 196.831 33.691Z" fill="#DBC5AB"/>
<path d="M194.977 35.039C195.006 35.8866 195.146 35.9254 194.251 35.9136L194.135 36.05C194.101 35.9624 193.958 35.8546 193.966 35.713C194.205 35.6052 194.772 35.2176 194.977 35.039Z" fill="#DBC5AB"/>
<path d="M198.347 34.1965C198.325 34.729 198.261 34.5099 197.675 34.5335C197.662 34.0904 197.547 33.718 198.01 33.5225C198.204 33.5073 198.317 33.7315 198.347 34.1965Z" fill="#DBC5AB"/>
<path d="M198.347 34.1965C198.191 33.9909 198.143 33.7534 198.01 33.5225C197.973 33.4568 197.897 33.4062 197.842 33.354C197.946 33.3051 198.068 33.0743 198.179 33.017C198.226 32.867 198.283 32.8704 198.347 33.017C198.361 33.4046 198.364 33.809 198.347 34.1965Z" fill="#F0E7DD"/>
<path d="M181.666 27.4565C182.031 27.5171 182.274 27.8625 182.397 28.4944C182.768 28.9359 182.862 29.3201 182.677 29.647C183.031 29.5998 183.347 29.8677 183.624 30.449C184.127 30.813 184.318 31.1635 184.193 31.5005L184.909 31.6926C186.168 32.7878 187.681 33.5781 189.346 33.809L189.754 34.1965C189.974 35.7838 191.562 36.2169 192.955 36.05L193.291 36.1326L192.618 37.9036C192.564 37.9153 192.504 37.8934 192.45 37.9036C192.308 38.099 192.084 38.1546 191.776 38.0721C185.241 38.6871 181.824 33.1535 179.666 27.876C179.676 27.7345 181.214 27.0655 181.497 26.9526C181.971 27.0082 182.048 27.1599 181.666 27.4581V27.4565Z" fill="#DBC5AB"/>
<path d="M192.45 37.9036C192.46 38.0586 192.337 38.1412 192.281 38.2406L191.776 38.0721C191.823 38.067 192.251 37.9423 192.45 37.9036Z" fill="#BD976A"/>
<path d="M192.282 19.3701C192.701 19.7711 192.079 20.3255 191.608 20.0441L190.861 20.3963L181.898 20.7063C181.75 20.9253 181.56 21.0416 181.331 21.0551C181.283 21.2017 181.226 21.2 181.162 21.0551C181.209 20.5951 181.26 20.162 181.331 19.7071C181.497 19.2808 181.572 19.1426 181.993 19.0112C182.414 18.8797 183.91 18.9707 184.279 19.2016C184.502 18.8342 185.036 18.723 185.884 18.8646C186.591 18.7348 187.068 18.8477 187.312 19.2016L187.506 18.8612L190.163 18.6759C190.588 18.4736 190.957 18.4804 191.272 18.6944C191.781 18.5057 192.683 18.7567 192.283 19.3684L192.282 19.3701Z" fill="#DFC97B"/>
<path d="M189.248 23.4141C189.676 23.704 189.078 24.9357 188.574 24.9307C188.317 25.052 187.663 25.2036 187.479 24.9307C187.464 25.0503 187.442 25.1463 187.4 25.1548C186.896 25.271 184.851 25.3553 184.35 25.2677L184.109 24.9307C184.483 25.5373 181.769 25.5642 181.46 25.5154L181.16 25.2677C181.147 25.1008 181.169 24.929 181.16 24.7621C181.068 24.4487 181.068 24.169 181.16 23.9196L181.315 23.5186C181.612 23.3097 184.219 23.3147 184.615 23.5826C184.631 23.4529 184.667 23.2642 184.765 23.2456C184.968 23.2086 187.257 23.2018 187.407 23.2456L187.648 23.5826C187.624 23.0114 189.159 22.7671 189.248 23.4141Z" fill="#E8D678"/>
<path d="M189.922 17.8536C190.445 17.616 191.277 17.8889 191.27 18.5276C191.417 18.5747 191.415 18.632 191.27 18.6961C191.055 18.6961 190.517 18.9926 190.156 19.0145C189.321 19.0668 188.042 19.2016 187.31 19.2016H184.277C184.217 19.2016 183.998 19.3633 183.779 19.3768C183.041 19.4189 181.753 19.0786 181.329 19.7071C181.408 19.1999 181.578 18.7854 181.666 18.3591L181.8 18.0136L187.051 17.6918C188.087 17.498 189.044 17.5519 189.922 17.8536Z" fill="#DDC57C"/>
<path d="M188.069 16.8426C188.235 16.3438 188.734 16.5005 188.743 17.0111C189.228 16.7819 189.9 17.1694 189.922 17.6851C190.069 17.7322 190.067 17.7895 189.922 17.8536L181.666 18.3591C181.731 18.0355 181.75 17.7053 181.834 17.3481C182.024 16.76 182.867 16.9133 183.266 17.1796C183.431 16.8156 183.908 16.7044 184.695 16.8426C185.464 16.7111 185.999 16.8223 186.299 17.1796C186.478 16.5308 187.509 16.5864 188.069 16.8426Z" fill="#DBC37C"/>
<path d="M185.204 15.6631C185.693 15.8434 186.387 15.9647 186.889 16.1686C187.742 16.1163 188.136 16.3421 188.069 16.8426C187.649 16.8392 186.663 17.1796 186.299 17.1796H183.266C183.207 17.1796 183.061 17.3312 182.907 17.3413C182.513 17.37 182.173 17.1745 181.834 17.3481C181.964 16.8038 182.23 16.2646 182.339 15.8316C183.158 15.8063 183.989 15.9984 184.699 15.4946C184.864 15.5519 185.042 15.6041 185.204 15.6631Z" fill="#D8BF7D"/>
<path d="M188.574 24.9306C188.896 25.0216 188.899 25.1716 188.574 25.2676L188.134 25.6383C186.055 25.8456 184.016 26.3798 182.057 27.0976L181.497 26.951C181.351 26.3528 181.211 25.9012 181.16 25.266C181.91 24.9357 182.803 25.148 183.61 25.1042C183.829 25.0924 184.05 24.929 184.109 24.929H187.479C187.688 24.929 188.175 24.5296 188.574 24.929V24.9306Z" fill="#EAD977"/>
<path d="M190.933 20.7181C191.11 21.2371 190.802 21.6145 190.259 21.5606L189.767 21.9161L181.605 22.2178C181.506 22.4722 181.357 22.6474 181.16 22.7401C181.63 23.0198 181.641 23.6466 181.16 23.9196C181.16 24.1993 181.145 24.4841 181.16 24.7621C180.778 23.6096 181.041 22.2329 181.16 21.0551H181.329L182.136 20.7417C185.019 20.6844 187.87 20.5715 190.692 20.4013L190.933 20.7181Z" fill="#E2CD7A"/>
<path d="M195.483 22.7401C195.586 22.9103 195.731 23.0704 195.82 23.2456C196.016 23.6247 196.186 24.0224 196.326 24.4251C196.381 24.5835 196.45 24.7739 196.494 24.9306L195.904 25.2609C194.526 25.394 193.149 25.3957 191.776 25.2676L191.545 25.581L188.804 25.5912L188.575 25.2659C188.595 25.1615 188.551 25.025 188.575 24.9289C188.657 24.5903 189.073 23.7882 189.249 23.4124C189.006 23.1698 189.078 23.0282 189.417 23.0754C189.532 22.8699 189.606 22.7873 189.825 22.7148C190.115 22.6205 194.909 22.3627 195.163 22.4436L195.483 22.7384V22.7401Z" fill="#F3EBC3"/>
<path d="M192.955 19.7071C193.09 19.8149 193.437 20.1974 193.629 20.3811C193.907 20.6473 194.618 21.3213 194.809 21.5606C194.939 21.7223 195.313 22.4587 195.483 22.7401L189.417 23.0771C189.043 22.7721 189.103 22.6053 189.585 22.5716C189.117 22.1537 189.767 21.6768 190.259 21.5606C190.467 21.2708 190.704 20.9894 190.933 20.7181C190.662 20.4114 190.888 20.1873 191.607 20.0441C191.838 19.8284 192.141 19.6767 192.281 19.3701C192.329 19.2235 192.386 19.2251 192.45 19.3701C192.553 19.5739 192.824 19.6026 192.955 19.7071Z" fill="#F1E9C3"/>
<path d="M196.494 24.9306C196.6 25.3182 196.706 25.699 196.662 26.1101C196.6 26.1472 196.555 26.2382 196.494 26.2786C196.58 26.7656 196.091 27.0672 195.651 26.9526C195.604 27.0992 195.547 27.0976 195.483 26.9526L195.109 27.0706C194.18 26.3545 193.065 25.8776 191.921 25.6316L191.776 25.2676C193.343 25.1025 194.915 24.8784 196.494 24.9306Z" fill="#F4EDC3"/>
<path d="M199.695 27.625C198.89 28.5736 198.334 29.9318 198.177 31.1618L196.831 28.1305C196.639 27.9535 196.548 27.7278 196.831 27.625H199.695Z" fill="#F8F2C4"/>
<path d="M196.494 26.2769C197.067 26.1185 196.792 27.1043 196.831 27.625C196.843 27.7918 196.823 27.9636 196.831 28.1305H196.662C196.201 28.2737 195.229 27.3621 195.651 26.9509C195.832 26.6257 196.196 26.4741 196.494 26.2769Z" fill="#F8F5DD"/>
<path d="M194.64 17.3481C194.405 17.5098 193.978 17.9378 193.798 18.1906C193.613 18.199 193.39 18.3557 193.292 18.3591C192.647 18.8949 191.985 18.9033 191.27 18.5276C190.938 18.5107 190.391 17.8131 189.922 17.8536V17.6851C190.05 17.2301 191.358 17.0212 191.837 17.0144C192.912 16.8544 193.845 16.9656 194.64 17.3481Z" fill="#C69E28"/>
<path d="M193.292 18.3591L192.45 19.3701H192.281C192.102 19.0819 191.602 18.6944 191.27 18.6961V18.5276C191.61 18.5444 192.753 18.3776 193.292 18.3591Z" fill="#C9A328"/>
<path d="M195.82 16.5055L195.651 16.8426C195.365 16.888 194.888 17.1779 194.64 17.3481C193.72 17.3851 192.782 17.2941 191.862 17.3497C191.36 17.3801 190.306 17.7002 189.922 17.6851C189.617 17.6716 188.994 17.1071 188.743 17.0111L188.795 16.5527C190.974 16.2663 193.189 16.1534 195.442 16.2174L195.82 16.5055Z" fill="#C49B28"/>
<path d="M197.168 15.663C196.802 15.963 196.293 16.428 195.82 16.5055C194.069 16.7886 191.38 16.46 189.493 16.6656C189.176 16.701 188.975 16.8072 188.743 17.011C188.588 16.9521 188.217 16.8442 188.069 16.8425C187.77 16.5712 187.258 16.3185 186.889 16.1685C187.976 15.9107 189.08 16.0624 190.182 16.0068C190.402 15.995 190.62 15.8315 190.68 15.8315H193.545C194.583 15.8315 196.027 15.7018 197.168 15.663Z" fill="#C19729"/>
<path d="M191.776 25.2677C192.863 25.4058 194.672 26.1776 195.483 26.9527C195.506 27.1313 195.528 27.3284 195.446 27.4952C195.277 27.8272 194.346 29.2797 194.115 29.5644C193.997 29.7094 193.803 29.7666 193.629 29.8172C192.158 29.7919 190.714 30.6563 190.091 32.0077C189.757 31.8257 189.233 31.3472 189.585 30.9967C188.94 30.9563 188.274 29.433 188.743 28.9747C188.111 28.754 187.86 27.3537 188.406 26.9527C187.868 26.6696 187.996 25.4446 188.574 25.2677C189.442 25.2171 190.952 25.1632 191.776 25.2677Z" fill="#FAF7E5"/>
<path d="M190.091 32.006C189.772 32.6952 189.648 33.4349 189.754 34.1965C187.515 33.9876 185.779 32.9968 184.193 31.5005C184.197 31.3674 184.22 31.1669 184.313 31.15C185.091 31.0135 188.731 30.6007 189.312 30.7102L189.585 30.9933C189.756 31.2932 190.192 31.514 190.091 32.0043V32.006Z" fill="#FAF6C5"/>
<path d="M196.662 28.1305C196.848 28.9275 196.266 30.0834 195.988 30.8265C195.635 30.1626 194.354 29.8273 193.629 29.8155C194.096 28.7404 194.674 27.8019 195.483 26.951H195.651C195.798 27.3621 196.576 27.7631 196.662 28.1305Z" fill="#FBFAF0"/>
<path d="M198.347 33.017C198.304 33.0406 198.223 32.9934 198.179 33.017L198.095 31.4988C198.369 31.9639 198.329 32.5031 198.347 33.017Z" fill="#FCFBEF"/>
<path d="M188.406 26.951C188.416 27.6351 188.561 28.3192 188.743 28.973L188.514 29.2392C186.59 29.5594 184.643 29.6942 182.677 29.647C182.092 28.7051 182.005 28.5568 181.666 27.4565C181.658 27.3773 181.658 27.2998 181.678 27.2307C181.772 26.9173 187.565 26.5971 188.182 26.6308L188.406 26.9526V26.951Z" fill="#F7F2C6"/>
<path d="M188.743 28.973C188.921 29.615 189.255 30.412 189.585 30.995L184.193 31.5005C183.351 30.7052 183.283 30.6243 182.677 29.647C182.795 29.2594 183.111 29.3218 183.427 29.2999C185.177 29.1836 187.004 29.2914 188.743 28.973Z" fill="#F9F4C5"/>
<path d="M188.574 25.2676C188.471 25.7934 188.397 26.4151 188.406 26.9527L181.666 27.4582C181.615 27.293 181.553 27.1784 181.497 26.9527C183.585 26.1253 186.33 25.3991 188.574 25.2676Z" fill="#F6EFC7"/>
<path d="M191.607 20.0441C191.454 20.1873 191.046 20.585 190.933 20.7181C190.465 20.7569 189.949 20.6608 189.491 20.7097C186.887 20.9894 183.974 21.1579 181.329 21.0551L181.576 20.3794L191.607 20.0441Z" fill="#E1CB7B"/>
<path d="M189.585 22.5716C189.526 22.6778 189.503 22.9052 189.417 23.0771C189.361 23.19 189.302 23.3012 189.248 23.4141C188.748 23.2372 187.964 23.5826 187.647 23.5826H184.614C184.554 23.5826 184.336 23.7478 184.116 23.7579C183.147 23.8017 182.072 23.5843 181.16 23.9196C181.16 23.5287 181.142 23.1294 181.16 22.7401C181.666 22.3711 183.733 22.2228 184.308 22.3374C184.441 22.3644 184.535 22.4671 184.614 22.5716C184.631 22.4402 184.67 22.2464 184.764 22.2346C185.302 22.1689 186.862 22.1706 187.406 22.2346L187.647 22.5716C187.678 21.9178 189.792 21.7123 189.585 22.5716Z" fill="#E5D278"/>
<path d="M190.26 21.5606C190.138 21.7291 189.66 22.4368 189.586 22.5716C189.115 22.0796 188.076 22.5716 187.648 22.5716H184.615C184.552 22.5716 184.337 22.7367 184.116 22.7469C183.135 22.789 182.141 22.7047 181.16 22.7401C181.174 22.4604 181.149 22.1756 181.16 21.8959L190.261 21.5606H190.26Z" fill="#E4D079"/>
</g>
<defs>
<clipPath id="clip0_234_176">
<rect width="49.7113" height="41.2509" fill="white" transform="translate(168.686 1.00006)"/>
</clipPath>
</defs>
</svg>
