<svg width="193" height="91" viewBox="0 0 193 91" fill="none" xmlns="http://www.w3.org/2000/svg">
<g clip-path="url(#clip0_228_536)">
<path d="M25.7744 42.1293C31.7562 41.7938 41.2035 34.4558 39.1763 27.8316C38.3304 25.0656 33.7691 24.9621 31.4707 25.5189C26.2455 26.7895 23.6187 31.7754 22.9156 36.7757C22.598 37.1005 16.8696 34.6949 16.5555 33.667C15.9024 31.522 19.2966 26.4111 18.9932 26.0685C9.19612 23.4203 3.3607 34.52 9.77788 41.883L15.599 48.5536C6.80128 45.345 -4.25925 35.1304 3.14299 25.3797C7.98621 19.0018 15.6561 19.7263 21.7021 23.9306C27.3912 21.3645 31.799 18.6163 37.5238 23.0633C46.2501 29.841 40.8823 44.5313 31.6562 48.1896L25.7744 42.1293Z" fill="#CA373C"/>
<path d="M126.779 26.7788C128.456 26.8966 130.016 26.2042 131.044 27.7532C131.576 30.8654 130.123 42.0794 131.751 44.1137C133.21 45.934 137.083 44.8311 138.557 43.2714C142.005 39.6274 140.959 34.5058 140.698 29.991L145.16 31.7719L145.335 54.439C143.989 63.2975 131.326 64.6359 125.869 58.9147C121.14 53.9572 125.433 49.0212 131.044 48.7143L133.91 52.8294C130.726 52.8651 123.313 55.3813 128.221 59.0574C132.836 62.5158 141.405 58.4471 141.405 52.6545V45.3379C137.722 46.6621 133.835 47.5472 130.362 45.1381C129.049 44.228 126.772 41.4191 126.772 39.8059V26.7788H126.779Z" fill="#CA373C"/>
<path d="M97.509 35.3409C96.3027 35.0661 96.4918 32.3464 95.1963 32.8497C94.2862 33.203 95.4818 35.6514 95.3497 36.9113C94.6538 43.5176 84.4784 37.9392 83.2542 44.0494C83.4219 44.467 83.7324 44.5526 84.1357 44.6276C87.0374 45.1665 90.7885 40.6802 94.8358 41.0371C99.472 41.4475 102.513 53.9179 98.3299 54.8958C94.147 55.8737 92.4552 52.5795 88.9647 51.9227C83.2435 50.8449 78.1005 55.267 75.5628 59.9639C74.1745 58.0901 75.6128 55.0136 76.6264 53.1826C78.7572 49.3423 82.3655 47.308 86.8304 48.3466C89.2217 48.9033 91.3131 52.0762 93.7615 52.1476C96.8666 52.2368 99.2257 49.1103 97.9552 46.1409C96.2598 42.1756 89.6821 47.7469 86.9375 47.8148C83.479 47.9004 77.2082 39.6987 83.9466 38.9099C81.7409 34.9269 81.5089 30.4263 87.0088 29.6661C89.7249 29.2913 91.3524 29.5983 93.3653 31.4078C94.8536 29.0736 96.5775 28.8987 98.2157 31.2436C99.6969 33.3636 98.2514 33.4136 97.4983 35.3444L97.509 35.3409ZM89.2074 31.8575C83.8359 32.9817 83.4469 42.3684 89.782 38.139C92.7657 36.1475 94.2969 30.7939 89.2074 31.8575Z" fill="#CA373C"/>
<path d="M163.54 48.1931L160.085 46.4835C156.252 48.6535 151.013 49.2139 148.043 45.3093C143.154 38.8779 154.582 32.5214 159.964 36.4188C160.853 32.7783 156.22 33.2138 153.879 33.7206C151.977 34.131 150.374 35.6943 148.589 34.9483C147.701 33.5243 150.667 31.4221 151.755 30.8832C154.892 29.3306 160.068 28.8916 162.263 32.1609C162.609 32.6748 163.537 34.7092 163.537 35.1696V48.1967L163.54 48.1931ZM154.168 38.9992C151.912 39.3847 148.804 41.8295 148.704 44.2707C151.245 46.4229 158.576 43.6676 159.8 41.0514C160.764 38.9956 155.549 38.7601 154.168 38.9956V38.9992Z" fill="#CA373C"/>
<path d="M117.142 48.1931L113.395 46.1552C110.229 48.5215 104.833 48.6643 101.96 45.7091C95.8744 39.4418 108.116 31.7398 113.57 36.4152C114.005 30.4656 105.561 33.9954 102.513 35.3445C101.185 33.0318 103.787 31.3614 105.725 30.5298C108.291 29.4306 112.838 28.9309 115.012 30.9724C115.804 31.7183 117.142 34.4915 117.142 35.523V48.1931ZM108.131 38.6388C105.821 39.0064 101.97 41.569 102.302 44.2886C105.179 46.1909 111.999 43.4392 113.413 40.6945C114.259 39.0599 109.258 38.4567 108.131 38.6352V38.6388Z" fill="#CA373C"/>
<path d="M58.9667 48.1932C58.7775 48.4038 56.0044 47.126 55.8902 46.3872C54.2198 46.8655 53.0278 47.8577 51.2004 48.1004C45.3935 48.8713 39.3261 43.5641 43.9766 38.3818C46.8997 35.1268 51.9 34.4701 55.751 36.4153C56.3934 30.0231 45.5898 35.6194 44.6976 35.1839L44.0123 34.3845C45.2651 30.4442 52.0748 28.7346 55.5975 30.3265C56.9537 30.9403 58.9667 33.3423 58.9667 34.8092V48.1932ZM49.5943 38.9993C47.2887 39.399 44.4228 41.8617 44.1301 44.2779C46.3465 46.7227 55.4619 43.143 55.4012 40.4983C55.3655 39.01 50.8221 38.7851 49.5943 38.9957V38.9993Z" fill="#CA373C"/>
<path d="M61.8219 30.3478L64.9841 30.3942C65.391 30.6584 65.0412 32.4679 65.9192 32.1252C70.1486 28.0993 75.1096 29.1165 77.9505 34.024C80.7915 38.9314 79.3674 44.8775 75.9233 48.8856L71.8296 45.8304C74.9632 42.3042 76.7692 39.449 76.0732 34.4737C75.57 30.8832 71.4548 31.34 69.1349 33.1995C67.6431 34.3952 65.3874 38.6852 65.3874 40.5161V48.5465L61.8184 46.2266V30.3443L61.8219 30.3478Z" fill="#CA373C"/>
<path d="M124.281 48.1929C122.703 48.1965 121.515 47.0151 120.347 46.155C119.833 37.8854 121.076 28.7415 120.308 20.579C119.901 16.2605 117.785 12.8949 115.354 9.47212L119.03 9.28296C120.594 11.1531 122.039 13.1875 122.867 15.5217C123.41 17.0528 124.281 20.8039 124.281 22.3172V48.1929Z" fill="#CA373C"/>
<path d="M179.066 24.2802C176.999 24.5265 172.841 26.2075 170.903 27.1818C169.155 28.0563 165.871 30.8187 164.586 31.247C164.008 31.4397 163.715 31.09 163.184 31.0578C166.735 25.458 170.686 19.7403 171.707 12.9948C171.803 12.3559 172.342 8.5656 171.571 8.58345C167.595 12.2774 164.065 16.3747 161.046 20.8932C160.635 21.4 160.421 20.2115 160.418 20.083C160.332 17.3883 165.493 9.83976 167.324 7.54128C169.59 4.70031 172.345 1.85219 175.508 0.00341797L176.332 0.60659C177.578 8.01954 175.579 15.461 172.467 22.1388C178.188 19.9866 184.691 17.7952 190.822 19.6654C191.365 19.8296 192.493 20.0366 192.411 20.8325C192.346 21.4606 189.027 25.6614 188.349 26.4288C184.427 30.8794 179.191 34.6876 173.359 36.0652L173.894 35.5227L172.82 35.3407L177.463 31.9572C179.323 29.6873 182.328 27.6173 184.063 25.3509C184.337 24.9904 184.751 24.9012 184.594 24.2766C182.828 24.4265 180.79 24.0732 179.062 24.2766L179.066 24.2802Z" fill="#008854"/>
<path d="M153.19 16.6069C153.504 19.0767 155.299 21.9034 156.042 24.2768C155.785 24.5516 152.455 21.8213 151.87 21.4929C150.128 20.5186 146.759 18.9375 144.988 20.1724L151.58 27.1356C148.536 26.536 141.087 19.7262 140.691 16.9602C140.588 16.2321 140.756 16.4891 141.223 16.4248C144.889 15.9073 149.111 17.6562 152.116 19.637C150.781 15.3149 149.46 10.5323 150.867 6.07812C154.564 9.45089 157.644 13.6303 158.897 18.5663L153.19 11.4282C153.336 13.0735 152.987 15.0044 153.19 16.6033V16.6069Z" fill="#008854"/>
<path d="M174.605 44.9844C176.6 49.1352 176.764 53.6929 176.385 58.1864C175.768 58.347 175.672 57.9294 175.315 57.6546C172.52 55.5096 169.08 50.2845 168.255 46.8653C168.18 46.5512 167.937 45.766 168.537 46.2264C169.644 47.9717 170.739 50.0346 172.117 51.5729C172.36 51.8441 173.541 53.2397 173.887 52.8328C174.233 48.1502 172.574 44.1064 170.682 39.9877C173.994 42.3147 177.367 45.2842 181.743 44.6239C182.007 44.3991 180.065 42.0828 179.787 41.7651C178.452 40.2304 176.803 39.0383 175.322 37.6643C175.265 37.3966 175.665 37.4358 175.85 37.4929C180.012 38.7992 184.205 44.0422 186.379 47.6612C184.252 48.9675 180.743 47.8218 178.541 46.9403C177.959 46.7047 174.779 44.8488 174.608 44.988L174.605 44.9844Z" fill="#008854"/>
<path d="M64.3204 62.6479C64.3347 62.7478 64.8593 63.0548 64.6773 63.1797L62.9427 63.1333C61.7756 59.9247 63.5816 56.4877 62.7143 53.1863C61.8934 55.2563 61.458 63.2118 58.7348 63.4616C56.0116 63.7115 56.8218 55.9987 56.8432 54.0643C56.8503 53.5289 56.1401 51.0484 57.7105 51.4053C59.5593 51.8265 58.0317 59.6784 58.5064 61.3309C58.6456 61.8163 58.4136 62.2624 59.1417 62.1054C60.9583 61.3702 61.0583 53.6217 62.2111 51.9692C62.8785 51.0127 64.324 51.4125 64.324 51.9371C64.324 55.0815 63.9242 59.7248 64.324 62.6443L64.3204 62.6479Z" fill="white"/>
<path d="M47.9026 51.0483C48.3202 51.4409 46.4465 52.9578 46.1717 53.4182C44.8261 55.7095 44.4978 62.6585 48.4309 62.4908C53.0028 62.298 53.217 49.8563 47.1924 53.5431C48.1561 50.5629 51.3361 51.1626 52.6138 53.6502C55.3334 58.9503 49.2839 67.3982 44.7012 61.5628C41.821 57.8974 43.4092 52.3582 47.8991 51.0483H47.9026Z" fill="white"/>
<path d="M34.9826 51.5016L35.236 52.1333C36.9599 50.7914 39.4547 51.2482 39.3654 53.7144C39.2976 55.5704 37.0919 56.9516 35.775 58.008C35.775 58.5362 41.6175 61.4807 40.7645 63.1796C39.9222 64.0612 36.2104 58.6041 35.2325 58.1865L35.4109 63.1796C34.9291 63.1974 34.4366 63.2296 33.9833 63.0047C32.1309 62.091 34.483 54.4033 33.3087 52.3511L34.9826 51.498V51.5016ZM37.5452 52.4795C34.8648 52.3653 34.9719 55.0778 35.054 57.1158C36.8778 56.6625 38.2555 54.2319 37.5452 52.4795Z" fill="white"/>
<path d="M29.2365 52.2227C29.7469 52.8544 30.0324 54.6996 29.1615 54.9708C26.8916 55.6811 29.4863 52.0656 27.0237 52.0835C23.5474 52.1084 22.6872 63.8078 27.9409 62.316L28.2764 58.183L30.0074 58.7683C30.1395 60.7884 30.4714 62.2624 28.3585 63.0833C22.5837 65.3283 20.4459 56.2414 23.9935 52.6509C25.2284 51.3982 28.0337 50.7272 29.24 52.2191L29.2365 52.2227Z" fill="white"/>
<path d="M72.4043 56.634C71.8975 57.2086 69.9238 58.2151 69.7311 58.779L69.6704 63.1832L68.2963 63.1297C67.7681 62.8156 67.636 53.0542 68.0679 52.1263C68.7103 50.7486 69.4384 51.9514 69.8524 51.9871C70.4306 52.0406 71.7369 50.6772 73.0931 51.7301C74.5921 52.8936 73.4072 55.499 72.4007 56.634H72.4043ZM69.6775 57.4727C71.6869 56.9445 73.6213 51.2019 70.477 52.7401C69.003 53.4611 69.9024 56.0308 69.6775 57.4727Z" fill="white"/>
</g>
<g clip-path="url(#clip1_228_536)">
<path d="M9.08815 79.8323H11.8353C12.2635 78.4005 11.6527 76.9349 11.8353 75.4692L12.9746 75.3884L13.4125 76.0752C13.524 79.0793 13.4044 82.0882 13.4448 85.0939C13.4497 85.5189 13.7987 85.8906 13.2073 85.9795C11.4184 86.2445 11.7933 83.326 11.8305 82.169C11.8402 81.8797 12.2183 80.6403 11.7561 80.6403H9.08976C9.02512 82.4356 8.87645 84.1809 9.08976 85.973C6.39593 86.2429 7.82445 82.2967 7.47217 80.6403C6.74013 80.8665 6.14707 80.9716 5.71075 80.2121C5.94184 79.2829 6.80477 79.9583 7.47378 79.8323V75.4692C8.15249 75.209 9.08976 75.5629 9.08976 76.3579V79.8323H9.08815Z" fill="white"/>
<path d="M90.695 79.8324H93.4421V75.4692C94.263 75.3933 94.8949 75.4256 95.0484 76.3677C95.391 78.4604 94.8723 81.4936 94.882 83.6299C94.8868 84.5349 95.7869 86.4175 94.2016 85.9408C93.9899 85.8777 93.4405 85.2297 93.4405 85.0859V80.642H90.6933C90.5269 82.426 90.4655 84.1939 90.6933 85.9747C87.9672 86.3561 89.449 82.2886 89.0757 80.642C88.3437 80.8682 87.7506 80.9732 87.3143 80.2137C87.5454 79.2845 88.4084 79.96 89.0774 79.834V75.4692C89.588 75.4951 90.1843 75.159 90.4477 75.7973C90.4865 75.891 90.6933 76.7895 90.6933 76.8428V79.8324H90.695Z" fill="white"/>
<path d="M52.0731 79.8322H54.9819V75.4691C55.8303 75.3495 56.2924 75.28 56.5284 76.2657C56.9178 77.8946 56.4492 80.6224 56.4282 82.3289C56.4136 83.5586 56.53 84.7528 56.5979 85.9729C56.1777 86.2412 54.9819 85.556 54.9819 85.2457V80.6402H52.2347C51.9148 82.3644 52.0537 84.2325 52.2347 85.9729C49.2726 86.2363 51.0034 82.3935 50.6171 80.6402C50.0015 80.8987 48.9688 80.9165 48.8363 80.073C48.7329 79.4137 50.357 79.9324 50.6188 79.8306V75.8731C50.6188 75.8359 50.4959 75.7858 50.4911 75.7115L50.6091 75.5466C50.9646 75.2784 52.0731 75.4044 52.0731 75.8731V79.8322Z" fill="white"/>
<path d="M26.0559 81.4483C24.5337 81.9929 24.5304 84.7934 23.6384 85.6918C23.438 85.8938 23.2296 85.994 22.9403 85.9456C21.3065 85.6676 22.0079 81.7343 21.843 80.5789L22.8934 80.1458C22.9451 80.2783 23.3071 80.6872 23.3071 80.7211V84.5186L24.949 81.2317C25.5776 80.4238 26.4001 79.5754 27.1839 80.7227C27.263 80.8375 27.5087 81.2915 27.5087 81.3675V84.357C28.3328 83.5087 29.0794 79.6804 30.7859 80.183C32.3178 80.6338 31.3773 84.3781 31.8847 85.5496L31.0073 85.9472C30.8311 85.9165 30.2558 85.2054 30.2558 85.0842V81.4483C28.8532 81.8604 28.4976 85.4446 27.5054 85.8987C26.691 86.272 26.0543 84.538 26.0543 83.9531V81.4483H26.0559Z" fill="white"/>
<path d="M105.063 80.1651L105.404 80.9634C107.718 79.0533 110.741 80.5998 109.426 83.6136C108.631 85.4348 105.924 85.7256 105.491 86.4658C104.906 87.4644 105.381 89.8237 105.404 90.9824L104.022 90.8273C103.448 87.5048 104.334 84.0563 103.831 80.7113L105.064 80.1651H105.063ZM105.4 85.3265C107.118 85.1132 108.165 83.7444 107.994 82.004C107.823 80.2636 105.4 81.2882 105.4 82.1753V85.3265Z" fill="white"/>
<path d="M112.189 80.9636C114.595 79.1003 117.677 80.5095 116.255 83.6574C115.403 85.5416 112.782 85.7436 112.365 86.3932C111.922 87.0833 112.238 90.0486 112.349 90.9826L110.995 90.9939C110.253 90.7936 111.281 81.7909 110.722 80.5757L111.762 80.1798L112.191 80.9668L112.189 80.9636ZM112.349 85.4883C113.807 84.8758 114.948 84.0743 114.948 82.3371C114.948 80.0619 112.349 81.4371 112.349 81.8524V85.4883Z" fill="white"/>
<path d="M66.4585 80.9635C70.8701 78.1371 72.512 83.4214 68.2377 85.5739C66.9708 86.2122 66.4375 85.708 66.2872 87.5017C66.1919 88.6555 66.3454 89.8384 66.4569 90.9825C66.082 90.9373 65.3096 91.1296 65.0801 90.8242C64.2592 89.7366 65.5455 82.4873 64.8619 80.7324L65.8929 80.204L66.4601 80.9635H66.4585ZM66.4553 85.3266C68.3266 85.2054 69.5854 83.0982 68.8954 81.3513C68.4009 80.7259 66.4553 81.3578 66.4553 82.0139V85.3266Z" fill="white"/>
<path d="M102.469 85.7873C102.422 85.8616 101.894 85.978 101.753 85.9812C100.695 86.0055 101.187 84.055 100.958 83.3876C100.273 84.7466 98.0686 87.2433 96.59 85.4916C95.0386 83.6542 98.3368 80.5128 100.189 80.1928C103.07 79.6951 102.34 81.3304 102.325 83.1355C102.322 83.651 102.6 85.5805 102.471 85.7873H102.469ZM100.514 80.8279C99.5521 80.9281 97.8036 82.5133 97.6549 83.4781C97.322 85.6241 99.1723 84.5333 99.9738 83.5346C100.358 83.0547 101.776 80.6954 100.514 80.8279Z" fill="white"/>
<path d="M121.883 84.5186C122.775 83.6702 123.451 79.85 125.157 80.1797C126.864 80.5093 125.628 84.42 126.39 85.6304C123.667 87.4079 125.314 81.4353 124.55 81.4498C123.32 82.1172 122.994 85.1827 122.139 85.8211C121.487 86.3075 120.697 85.367 120.6 84.7497C120.406 83.5231 120.709 81.8797 120.419 80.5756L121.468 80.1458C121.526 80.4528 121.883 80.4496 121.883 80.477V84.517V84.5186Z" fill="white"/>
<path d="M132.709 84.1953L132.579 84.6591L132.862 84.6849L132.87 84.9192C131.374 86.1522 129.304 86.7679 127.938 85.0049C126.051 82.568 128.897 79.3554 131.747 80.2264C133.452 80.7468 132.765 82.7619 131.091 83.3033C130.307 83.557 128.816 83.2693 129.018 84.2389C129.372 85.9292 131.901 85.0388 132.707 84.1937L132.709 84.1953ZM128.995 82.9009C130.189 83.14 131.558 81.9119 130.939 80.7096C129.78 80.6385 129.187 81.9313 128.995 82.9009Z" fill="white"/>
<path d="M17.6221 80.0213C17.6512 80.0343 17.6528 80.3445 17.9631 80.4092C18.6709 80.5578 19.1767 79.9228 20.0606 80.7356C21.5586 82.114 20.4743 85.1117 18.7355 85.8405C15.4292 87.227 12.9083 82.6069 16.0869 80.6063C16.331 80.4528 17.4234 79.9292 17.6221 80.0197V80.0213ZM17.8144 80.6419C15.956 81.0119 15.6393 85.3573 17.7369 85.3314C19.4514 85.3104 19.9766 82.7329 19.2316 81.4854L17.4912 81.1234L17.8144 80.6419Z" fill="white"/>
<path d="M60.801 79.9954C60.5263 80.3864 60.9093 80.2523 60.9836 80.6207C62.5511 79.6706 63.936 81.0247 63.8794 82.6617C63.7776 85.6529 60.1449 87.5258 58.2122 84.7625C56.7675 82.6957 58.4934 80.1925 60.7994 79.9954H60.801ZM60.6216 80.826C59.6747 80.9666 59.3062 82.6278 59.3402 83.4584C59.4452 86.1086 62.2505 85.7676 62.564 83.6151C62.7547 82.2997 62.6319 80.9746 60.961 81.2849L61.1258 80.9633L60.7105 81.1104L60.6249 80.826H60.6216Z" fill="white"/>
<path d="M73.097 83.5635C72.7415 85.9891 75.6163 85.3023 76.796 84.1954C77.2581 85.0179 75.988 85.6255 75.3076 85.8566C71.8365 87.0379 69.9895 83.0901 72.5944 80.881C75.0281 78.8174 78.4523 81.2818 75.8199 82.9753C75.0717 83.4569 73.9632 83.5651 73.097 83.5635ZM75.1703 80.8131C73.9567 80.4237 73.0421 81.8005 73.0824 82.901C74.3187 83.0189 75.3141 82.0655 75.1703 80.8131Z" fill="white"/>
<path d="M38.3373 84.1969L38.1773 84.6817L38.4973 84.7593C37.0671 86.4496 33.9645 86.7324 33.0531 84.3892C31.9671 81.5968 35.7889 78.8012 37.7766 80.6353C39.6317 82.345 36.0895 83.7865 34.6125 83.6233C34.2069 85.0744 35.8228 85.5269 36.9977 85.0372C37.2691 84.9241 38.1886 84.0628 38.3373 84.1969ZM36.7116 80.8147C35.5207 80.3186 34.5317 81.8538 34.6222 82.9025C35.915 83.0124 36.7714 82.0848 36.7116 80.8147Z" fill="white"/>
<path d="M138.507 81.9104C138.19 82.4016 136.739 81.8118 137.167 80.9585C136.188 80.5142 134.551 80.8018 135.293 82.1786C136.534 82.5875 138.358 82.2643 138.777 83.8689C139.41 86.2977 134.8 86.8714 133.862 85.0631C133.648 84.6494 133.581 84.218 133.948 83.8657C135.511 83.4811 134.992 85.1973 135.236 85.3346C136.38 85.6319 137.969 85.4429 137.536 83.8948C136.435 83.4633 134.805 83.7025 134.092 82.5729C132.668 80.3202 137.468 79.2181 138.345 80.9036C138.473 81.1492 138.651 81.689 138.507 81.912V81.9104Z" fill="white"/>
<path d="M143.81 80.5287C143.956 80.6644 144.31 81.3787 144.313 81.5597C143.712 82.749 142.754 81.857 142.799 80.7953C142.164 80.8147 141.236 80.6353 140.91 81.3253C140.32 82.568 142.07 82.3289 142.867 82.5212C143.537 82.6828 144.353 83.0302 144.504 83.7962C145.048 86.5627 140.126 86.7486 139.57 85.013C139.079 83.4811 140.763 83.5473 140.9 84.4636C140.932 84.6833 140.708 84.9516 140.855 85.1714C141.254 85.7677 143.676 85.4332 143.379 84.2874C143.261 83.4132 140.965 83.6653 140.155 82.972C139.346 82.2788 139.517 81.0442 140.409 80.5044C141.149 80.0568 143.167 79.9308 143.809 80.5303L143.81 80.5287Z" fill="white"/>
<path d="M44.3164 90.6594C44.0579 90.7741 43.3469 90.4784 43.3469 90.2554V75.55L43.7492 75.3076C43.843 75.4288 44.3164 75.8183 44.3164 75.8732V90.6594Z" fill="white"/>
<path d="M82.7766 90.6594C82.518 90.7741 81.807 90.4784 81.807 90.2554V75.55L82.2094 75.3076C82.3031 75.4288 82.7766 75.8183 82.7766 75.8732V90.6594Z" fill="white"/>
<path d="M118.975 85.8112C118.655 85.7821 118.249 85.884 117.95 85.7854C117.076 85.4961 117.798 81.5774 117.412 80.7112L118.414 80.207C118.564 80.2248 118.975 80.7985 118.975 80.8825V85.8112Z" fill="white"/>
<path d="M117.535 76.7781C117.559 76.7442 118.007 76.6068 118.104 76.6036C119.409 76.5616 119.068 78.8934 117.923 79.1488C117.252 78.811 117.703 78.3472 117.69 77.8188C117.683 77.5425 117.405 76.9607 117.535 76.7765V76.7781Z" fill="white"/>
</g>
<defs>
<clipPath id="clip0_228_536">
<rect width="191.705" height="63.5401" fill="white" transform="translate(0.712402)"/>
</clipPath>
<clipPath id="clip1_228_536">
<rect width="138.837" height="15.6927" fill="white" transform="translate(5.70911 75.3074)"/>
</clipPath>
</defs>
</svg>
