<svg width="178" height="148" viewBox="0 0 178 148" fill="none" xmlns="http://www.w3.org/2000/svg">
<path d="M143.295 61.9602C138.064 62.5836 127.537 66.8394 122.631 69.3061C118.204 71.5199 109.891 78.5134 106.638 79.5977C105.174 80.0856 104.433 79.2001 103.087 79.1188C112.077 64.9419 122.08 50.4669 124.664 33.3896C124.908 31.7722 126.272 22.1764 124.321 22.2216C114.255 31.5734 105.319 41.9463 97.6746 53.3854C96.6355 54.6685 96.0934 51.6596 96.0843 51.3343C95.8675 44.5124 108.933 25.4021 113.568 19.5832C119.306 12.3909 126.281 5.18044 134.287 0.5L136.374 2.02702C139.528 20.794 134.468 39.6332 126.589 56.5388C141.073 51.0904 157.535 45.5425 173.059 50.2772C174.432 50.6928 177.287 51.2169 177.079 53.2318C176.917 54.8221 168.514 65.457 166.797 67.3996C156.867 78.667 143.612 88.308 128.847 91.7958L130.203 90.4223L127.483 89.9615L139.238 81.3958C143.946 75.6491 151.554 70.4085 155.945 64.6709C156.641 63.7583 157.689 63.5324 157.292 61.9511C152.819 62.3306 147.66 61.4361 143.286 61.9511L143.295 61.9602Z" fill="#008854"/>
<path d="M77.7871 42.5335C78.5823 48.7861 83.1272 55.9423 85.0066 61.951C84.356 62.6467 75.9258 55.7345 74.4439 54.9032C70.0346 52.4365 61.505 48.4337 57.0233 51.56L73.7121 69.1885C66.0047 67.6705 47.1474 50.4306 46.1444 43.428C45.8824 41.5847 46.3071 42.2353 47.4907 42.0726C56.7703 40.7625 67.4594 45.1899 75.0674 50.2047C71.6881 39.2626 68.3449 27.1549 71.9049 15.8784C81.2658 24.4171 89.0635 34.9978 92.235 47.494L77.7871 29.4228C78.1576 33.5882 77.2721 38.4765 77.7871 42.5244V42.5335Z" fill="#008854"/>
<path d="M132.001 114.376C137.052 124.884 137.467 136.423 136.509 147.799C134.946 148.205 134.702 147.148 133.799 146.452C126.724 141.022 118.014 127.794 115.926 119.138C115.737 118.343 115.122 116.355 116.64 117.52C119.441 121.939 122.215 127.161 125.703 131.056C126.317 131.742 129.308 135.275 130.185 134.245C131.061 122.391 126.859 112.153 122.071 101.726C130.456 107.617 138.994 115.135 150.072 113.463C150.741 112.894 145.825 107.03 145.12 106.226C141.741 102.341 137.567 99.3227 133.817 95.844C133.672 95.1663 134.684 95.2657 135.154 95.4103C145.69 98.7173 156.307 111.991 161.809 121.153C156.424 124.46 147.542 121.559 141.967 119.328C140.494 118.731 132.443 114.033 132.01 114.385L132.001 114.376Z" fill="#008854"/>
<path d="M63.9458 130.745C79.0895 129.896 103.007 111.318 97.8745 94.5482C95.7331 87.5456 84.1856 87.2836 78.3667 88.6931C65.1385 91.9098 58.4883 104.533 56.7083 117.191C55.9042 118.014 41.402 111.924 40.6069 109.321C38.9534 103.891 47.5462 90.952 46.7782 90.0846C21.9755 83.3802 7.20224 111.481 23.4483 130.121L38.1853 147.009C15.9126 138.886 -12.0888 113.026 6.65107 88.3408C18.9124 72.1941 38.3299 74.0284 53.6362 84.6723C68.039 78.1757 79.1979 71.2183 93.6911 82.4766C115.783 99.6353 102.194 136.826 78.8365 146.087L63.9458 130.745Z" fill="#CA373C"/>
</svg>
