<svg width="160" height="160" viewBox="0 0 160 160" fill="none" xmlns="http://www.w3.org/2000/svg">
<path d="M141.013 10.5222V38.7344L112.327 14V10.5222C112.327 5.90187 116.098 2.13031 120.719 2.13031H132.604C137.241 2.13062 141.013 5.90187 141.013 10.5222Z" fill="#008854"/>
<path d="M155.167 77.0857C150.37 82.66 141.956 83.2497 136.44 78.4732L82.0564 31.5672C80.8973 30.5713 79.0848 30.5713 77.9258 31.5835L23.542 78.4735C17.9817 83.25 9.60295 82.6488 4.81545 77.086C0.0482607 71.5513 0.66826 63.1591 6.20295 58.3757L60.5867 11.4694C71.6561 1.9344 88.3255 1.9344 99.3951 11.4694L153.779 58.3757C159.314 63.1591 159.934 71.551 155.167 77.0857Z" fill="#008854"/>
<path d="M54.7099 98.0653C54.2527 99.7959 55.2815 101.592 57.0284 102.049C57.159 102.082 63.7549 103.943 70.3018 110.147C66.6937 113.151 61.5671 114.033 57.0118 111.976C53.4199 110.359 45.9915 101.755 37.5996 89.3797C37.6159 89.3306 37.6487 89.3144 37.6974 89.3144C43.3605 88.5919 62.1824 86.5916 67.363 88.9228C73.4527 91.6656 76.3099 98.6372 74.0568 104.808C66.4324 97.9188 58.8568 95.7797 58.7096 95.7472C56.963 95.29 55.1837 96.3184 54.7099 98.0653Z" fill="#008854"/>
<path d="M108.474 109.004C109.845 107.845 110.025 105.787 108.865 104.416C107.706 103.028 105.633 102.849 104.261 104.025C103.87 104.351 99.9021 107.78 95.5264 114.065C93.2786 109.782 94.1399 104.431 97.7796 101.069C99.7224 99.2731 107.183 96.2694 122.302 93.1837C118.057 108.008 114.482 115.225 112.522 117.02C109.126 120.158 104.353 120.757 100.31 118.784C104.49 112.514 108.343 109.135 108.474 109.004Z" fill="#008854"/>
<path d="M160 154.588C160 156.4 158.531 157.853 156.735 157.853C156.033 157.853 164.712 157.851 89.9753 157.869C89.0284 143.878 92.6853 132.596 96.9794 124.4C103.393 127.836 111.412 126.964 116.947 121.82C120.555 118.49 124.506 109.331 128.686 94.5712C129.29 92.4487 128.768 90.2122 127.266 88.5959C125.764 86.9797 123.576 86.2612 121.421 86.7019C121.404 86.7019 121.404 86.7019 121.404 86.7019C106.384 89.7388 96.9472 92.9716 93.3553 96.2694C86.5309 102.574 85.8825 113.019 91.7556 120.122C90.4006 122.587 89.0944 125.33 87.9191 128.334C85.9597 120.547 82.6291 114.522 78.8744 109.902C84.3669 100.442 80.5338 87.6834 70.0416 82.9791C63.8862 80.2034 48.6213 81.3628 36.8822 82.8322C34.5638 83.1259 32.6047 84.5628 31.6413 86.7016C30.6778 88.8241 30.89 91.2566 32.2128 93.1997C38.8903 102.947 48.1312 115.159 54.3353 117.934C61.3881 121.099 69.2094 119.664 74.6456 115.044C85.7356 129.907 82.7316 147.394 83.4456 157.869C78.7334 157.868 7.98187 157.854 3.26594 157.853C1.45312 157.853 0 156.4 0 154.588C0 152.792 1.45313 151.322 3.26531 151.322H20.0487V87.5347C22.8734 86.7672 25.5347 85.3634 27.8037 83.4203L80 38.4247L132.163 83.4041C134.433 85.3797 137.11 86.7837 139.951 87.5509V151.322H156.735C158.531 151.322 160 152.792 160 154.588Z" fill="#008854"/>
</svg>
