<svg width="160" height="160" viewBox="0 0 160 160" fill="none" xmlns="http://www.w3.org/2000/svg">
<g clip-path="url(#clip0_78_178)">
<path d="M23.9428 37.7372C22.785 35.4216 19.9691 34.4825 17.6538 35.6409L7.61222 40.6616C5.2966 41.8194 4.35816 44.635 5.51597 46.9506C6.67753 49.2738 9.49722 50.2009 11.805 49.0469L21.8466 44.0263C24.1619 42.8681 25.1003 40.0525 23.9428 37.7372Z" fill="#008854"/>
<path d="M7.61203 8.88125L17.6536 13.9022C19.9658 15.0581 22.783 14.1253 23.9427 11.8059C25.1005 9.49032 24.162 6.67469 21.8464 5.51688L11.8048 0.495942C9.48922 -0.66187 6.6739 0.27688 5.51578 2.59219C4.35828 4.90782 5.29672 7.72344 7.61203 8.88125Z" fill="#008854"/>
<path d="M138.154 44.0259L148.196 49.0466C150.508 50.2028 153.325 49.2691 154.484 46.9503C155.642 44.6347 154.704 41.8191 152.388 40.6612L142.346 35.6406C140.032 34.4837 137.216 35.4212 136.057 37.7369C134.9 40.0525 135.838 42.8684 138.154 44.0259Z" fill="#008854"/>
<path d="M142.346 13.9022L152.388 8.88125C154.704 7.72344 155.642 4.90781 154.484 2.59219C153.327 0.276563 150.511 -0.661875 148.196 0.495937L138.154 5.51687C135.838 6.67469 134.9 9.49031 136.057 11.8059C137.22 14.1303 140.04 15.0553 142.346 13.9022Z" fill="#008854"/>
<path d="M32.5329 99.5241C41.9302 98.0007 48.3132 89.1476 46.7899 79.7502C45.2665 70.3527 36.4135 63.9695 27.0162 65.4929C17.619 67.0163 11.2359 75.8693 12.7593 85.2668C14.2827 94.6642 23.1357 101.047 32.5329 99.5241Z" fill="#008854"/>
<path d="M132.941 99.5424C142.338 98.019 148.721 89.166 147.198 79.7685C145.674 70.3711 136.821 63.9879 127.424 65.5113C118.027 67.0346 111.644 75.8877 113.167 85.2851C114.69 94.6826 123.543 101.066 132.941 99.5424Z" fill="#008854"/>
<path d="M55.9853 109.605L56.2234 109.51C55.6572 108.387 55.1678 107.218 54.7625 106.012C53.4869 104.859 51.9947 103.915 50.3256 103.247L47.6816 102.189C42.9534 106.494 36.6759 109.125 29.7919 109.125C22.9072 109.125 16.625 106.497 11.895 102.192L9.25813 103.247C3.63406 105.496 0 110.864 0 116.923V155.312C0 157.901 2.09875 160 4.6875 160H41.6397C41.1194 158.533 40.8334 156.956 40.8334 155.312V131.986C40.8334 122.071 46.7809 113.286 55.9853 109.605Z" fill="#008854"/>
<path d="M150.742 103.247L148.105 102.192C143.375 106.497 137.092 109.125 130.208 109.125C123.324 109.125 117.046 106.495 112.319 102.189L109.674 103.247C108.005 103.915 106.513 104.859 105.237 106.012C104.832 107.219 104.342 108.387 103.776 109.51L104.016 109.605C113.219 113.286 119.167 122.071 119.167 131.986V155.312C119.167 156.956 118.881 158.533 118.36 160H155.312C157.901 160 160 157.901 160 155.312V116.923C160 110.864 156.366 105.496 150.742 103.247Z" fill="#008854"/>
<path d="M100.534 118.31L97.8968 117.255C93.1668 121.56 86.8846 124.187 79.9999 124.187C73.1152 124.187 66.833 121.56 62.103 117.255L59.4661 118.31C53.8421 120.559 50.208 125.927 50.208 131.986V155.312C50.208 157.901 52.3068 160 54.8955 160H105.104C107.693 160 109.791 157.901 109.791 155.312V131.986C109.791 125.927 106.158 120.559 100.534 118.31Z" fill="#008854"/>
<path d="M82.7336 114.595C92.1309 113.071 98.5139 104.218 96.9905 94.8208C95.4671 85.4233 86.6142 79.0401 77.2169 80.5635C67.8197 82.0868 61.4366 90.9399 62.96 100.337C64.4834 109.735 73.3364 116.118 82.7336 114.595Z" fill="#008854"/>
<path d="M76.6855 68.2425C77.5645 69.1216 78.757 69.6156 80.0002 69.6156C81.2436 69.6156 82.4358 69.1216 83.3148 68.2425L116.698 34.8569C124.661 26.8934 124.661 13.9363 116.698 5.97281C108.735 -1.99062 95.7777 -1.99062 87.8148 5.97188L80.0002 13.7844L72.1858 5.9725C64.2227 -1.99094 51.2652 -1.99062 43.3027 5.97188C35.3105 13.9609 35.3239 26.8816 43.302 34.8569L76.6855 68.2425Z" fill="#008854"/>
</g>
<defs>
<clipPath id="clip0_78_178">
<rect width="160" height="160" fill="white"/>
</clipPath>
</defs>
</svg>
