<svg width="160" height="160" viewBox="0 0 160 160" fill="none" xmlns="http://www.w3.org/2000/svg">
<g clip-path="url(#clip0_78_171)">
<path d="M79.0242 89.3259V83.9891C79.0242 82.5981 80.1555 81.4669 81.5464 81.4669H88.6686H116.666C118.062 81.4669 119.198 82.5981 119.198 83.9891V89.3259C119.198 90.7169 118.063 91.8481 116.666 91.8481H81.5464C80.1555 91.8481 79.0242 90.7169 79.0242 89.3259ZM75.983 24.3566C75.983 11.9809 86.0508 1.91312 98.4261 1.91312C110.802 1.91312 120.87 11.9809 120.87 24.3566C120.87 36.0134 111.936 45.6194 100.556 46.6962H96.2958C84.9161 45.6194 75.983 36.0134 75.983 24.3566ZM88.6308 31.0631C88.6308 34.8603 91.932 37.9494 95.9892 37.9494H96.0927V43.2675H100.759V37.8837C104.961 37.3884 108.222 34.0369 108.222 29.9862C108.222 25.5953 104.391 22.0231 99.6823 22.0231C93.7852 22.0231 93.297 20.4641 93.297 18.7266C93.297 16.9344 95.0705 15.4206 97.1695 15.4206H100.863C102.322 15.4206 103.555 16.4416 103.555 17.6497V19.9831H108.222V17.65C108.222 13.8478 104.92 10.7544 100.863 10.7544H100.759V5.43624H96.0927V10.82C91.8911 11.3162 88.6308 14.6716 88.6308 18.7269C88.6308 21.8437 90.0205 24.1722 92.6489 25.4612C94.3823 26.3109 96.5517 26.69 99.6823 26.69C101.781 26.69 103.555 28.1997 103.555 29.9866C103.555 31.7734 101.781 33.2831 99.6823 33.2831H95.9892C94.5298 33.2831 93.2973 32.2669 93.2973 31.0634V28.7303H88.6308V31.0631ZM88.6683 66.4103C87.2723 66.4103 86.1367 67.5456 86.1367 68.9419V74.2691C86.1367 75.665 87.272 76.8006 88.6683 76.8006H116.666H123.789C125.179 76.8006 126.31 75.6653 126.31 74.2691V68.9419C126.31 67.5456 125.179 66.4103 123.789 66.4103H115.986H88.6683ZM80.8661 61.7437H88.6683H115.986C117.382 61.7437 118.518 60.6125 118.518 59.2216V53.8847C118.518 52.4937 117.382 51.3625 115.986 51.3625H100.716C99.9605 51.4259 99.198 51.4662 98.4258 51.4662C97.6539 51.4662 96.8914 51.4259 96.1355 51.3625H80.8661C79.4702 51.3625 78.3345 52.4937 78.3345 53.8847V59.2216C78.3348 60.6125 79.4702 61.7437 80.8661 61.7437ZM44.4611 70.33V35.0303C44.4611 33.7416 45.5058 32.6969 46.7945 32.6969H61.137L37.7258 0.906868L14.307 32.6972H28.6583C29.947 32.6972 30.9914 33.7419 30.9914 35.0306V70.3303H44.4611V70.33ZM150.48 124.207C148.069 119.238 142.064 117.154 137.096 119.565L102.414 136.373C102.115 136.875 101.794 137.363 101.439 137.825C98.5442 141.569 94.1873 143.531 89.7889 143.531C86.6564 143.532 83.503 142.537 80.8386 140.481L55.6977 121.08L58.5483 117.386L83.6892 136.787C88.0589 140.158 94.3633 139.347 97.742 134.977C98.1127 134.495 98.4364 133.971 98.717 133.42C98.778 133.302 98.8367 133.183 98.8923 133.062C98.9486 132.941 99.0027 132.818 99.0545 132.693C100.744 128.595 99.482 123.674 95.9239 120.928C90.0233 116.377 84.1223 111.824 78.2217 107.271C72.4398 102.809 66.658 98.3478 60.8764 93.8887H34.458V136.834C38.8464 139.128 42.9195 141.281 46.5473 143.199C68.027 154.554 78.8086 160.254 88.833 160.58C98.8002 160.899 108.871 155.897 128.921 145.92C133.874 143.455 139.488 140.662 145.838 137.583C150.805 135.177 152.888 129.176 150.48 124.207ZM8.51953 144.387H29.7917V85.4153H8.51953V144.387Z" fill="#008854"/>
</g>
<defs>
<clipPath id="clip0_78_171">
<rect width="160" height="160" fill="white"/>
</clipPath>
</defs>
</svg>
