<svg width="23" height="23" viewBox="0 0 23 23" fill="none" xmlns="http://www.w3.org/2000/svg">
<path d="M6.76614 8.95139C6.37894 9.34119 6.33174 9.95446 6.65474 10.3993C7.41474 11.4443 8.25601 12.4277 9.1706 13.3411C10.1913 14.3651 11.3005 15.2967 12.4858 16.1255C12.9307 16.4374 13.5361 16.385 13.9206 16.0011L16.0303 13.8914C16.6107 13.3109 17.5529 13.3109 18.1334 13.8914L21.8155 17.5735C22.3959 18.1539 22.3959 19.0961 21.8155 19.6766L20.8196 20.6725C19.3684 22.1387 17.2568 22.7402 15.2507 22.258C13.3893 21.7647 11.6198 20.9745 10.0093 19.9191C8.52661 18.9795 7.15141 17.8815 5.90787 16.6432C4.76461 15.5058 3.73727 14.2571 2.84167 12.9153C1.85627 11.4634 1.07601 9.88246 0.522339 8.21766C-0.158395 6.09553 0.405742 3.771 1.98341 2.19659L3.14308 1.01726C3.72354 0.436793 4.66568 0.436793 5.24621 1.01726L8.92828 4.69932C9.50875 5.27979 9.50875 6.22192 8.92828 6.80246L6.76614 8.95139Z" fill="#212121"/>
</svg>
